<svg version="1.1" xmlns="http://www.w3.org/2000/svg" xmlns:xlink="http://www.w3.org/1999/xlink" width="1481" height="821"><defs/><g><rect fill="rgb(255,255,255)" stroke="none" x="0" y="0" width="1481" height="821" transform="matrix(1 0 0 1 0 0)" fill-opacity="1"/><path fill="rgb(200,200,200)" stroke="none" paint-order="stroke fill markers" d=" M 1579.448085613314 544.9290008203388 A 58714.73538286655 58714.73538286655 0 0 1 -95.95787141106484 187.1842008873282 L -100.02210487335833 178.0470836136883 L -92.38883214286216 171.58734355317574 L -92.38883214286216 171.58734355317574 A 58698.73538286655 58698.73538286655 0 0 0 1582.5605700637589 529.2346565987536 Z" fill-opacity="1"/><path fill="rgb(238,238,238)" stroke="none" paint-order="stroke fill markers" d=" M 1579.0590250570076 546.8907938480406 A 58716.73538286655 58716.73538286655 0 0 1 -96.40400131958995 189.13380805409543 L -100.02210487335833 178.0470836136883 L -95.95787141106484 187.1842008873282 L -95.95787141106484 187.1842008873282 A 58714.73538286655 58714.73538286655 0 0 0 1579.448085613314 544.9290008203388 Z" fill-opacity="1"/><path fill="rgb(161,161,161)" stroke="none" paint-order="stroke fill markers" d=" M 1582.9496306200654 527.2728635710519 A 58696.73538286655 58696.73538286655 0 0 1 -91.94270223433705 169.63773638640123 L -100.02210487335833 178.0470836136883 L -92.38883214286216 171.58734355317574 L -92.38883214286216 171.58734355317574 A 58698.73538286655 58698.73538286655 0 0 0 1582.5605700637589 529.2346565987536 Z" fill-opacity="1"/><path fill="none" stroke="rgb(128,128,128)" paint-order="fill stroke markers" d=" M 1581.0506083468317 473.37246065465297 A 58644.23538286655 58644.23538286655 0 0 1 -100.02222153140974 113.9282858249644" stroke-opacity="1" stroke-miterlimit="10" stroke-width="0.8" stroke-dasharray=""/><path fill="none" stroke="rgb(166,166,166)" paint-order="fill stroke markers" d=" M 1580.9629767826427 473.813845644152 A 58644.68538286655 58644.68538286655 0 0 1 -100.12275262048024 114.36691265967238" stroke-opacity="1" stroke-miterlimit="10" stroke-width="0.1" stroke-dasharray=""/><path fill="none" stroke="rgb(89,89,89)" paint-order="fill stroke markers" d=" M 1581.1382399110225 472.9310756651539 A 58643.785382866554 58643.785382866554 0 0 1 -99.92169044233924 113.48965899025643" stroke-opacity="1" stroke-miterlimit="10" stroke-width="0.1" stroke-dasharray=""/><path fill="none" stroke="rgb(128,128,128)" paint-order="fill stroke markers" d=" M 1581.0506896618372 419.33705246351747 A 58591.23538286655 58591.23538286655 0 0 1 -100.06518615107962 59.54289901009179" stroke-opacity="1" stroke-miterlimit="10" stroke-width="0.8" stroke-dasharray=""/><path fill="none" stroke="rgb(166,166,166)" paint-order="fill stroke markers" d=" M 1580.9629788291986 419.77842170784425 A 58591.68538286655 58591.68538286655 0 0 1 -100.16580850775608 59.98150491672277" stroke-opacity="1" stroke-miterlimit="10" stroke-width="0.1" stroke-dasharray=""/><path fill="none" stroke="rgb(89,89,89)" paint-order="fill stroke markers" d=" M 1581.138400494474 418.89568321919796 A 58590.785382866554 58590.785382866554 0 0 1 -99.96456379440133 59.10429310345353" stroke-opacity="1" stroke-miterlimit="10" stroke-width="0.1" stroke-dasharray=""/><path fill="none" stroke="rgb(128,128,128)" paint-order="fill stroke markers" d=" M 1581.0698111117545 365.30350126677513 A 58538.23538286655 58538.23538286655 0 0 1 -100.01542058611994 5.176198473571276" stroke-opacity="1" stroke-miterlimit="10" stroke-width="0.8" stroke-dasharray=""/><path fill="none" stroke="rgb(166,166,166)" paint-order="fill stroke markers" d=" M 1580.9820210134967 365.7448547516906 A 58538.68538286655 58538.68538286655 0 0 1 -100.11613366282472 5.614783557874034" stroke-opacity="1" stroke-miterlimit="10" stroke-width="0.1" stroke-dasharray=""/><path fill="none" stroke="rgb(89,89,89)" paint-order="fill stroke markers" d=" M 1581.1576012100122 364.8621477818597 A 58537.785382866554 58537.785382866554 0 0 1 -99.91470750941335 4.7376133892612415" stroke-opacity="1" stroke-miterlimit="10" stroke-width="0.1" stroke-dasharray=""/><path fill="none" stroke="rgb(128,128,128)" paint-order="fill stroke markers" d=" M 1581.0369280542582 311.25766741662665 A 58485.23538286655 58485.23538286655 0 0 1 -100.01432291894525 -49.20426284238056" stroke-opacity="1" stroke-miterlimit="10" stroke-width="0.8" stroke-dasharray=""/><path fill="none" stroke="rgb(166,166,166)" paint-order="fill stroke markers" d=" M 1580.9490581465834 311.6990050190652 A 58485.68538286655 58485.68538286655 0 0 1 -100.11512725456487 -48.7656987240116" stroke-opacity="1" stroke-miterlimit="10" stroke-width="0.1" stroke-dasharray=""/><path fill="none" stroke="rgb(89,89,89)" paint-order="fill stroke markers" d=" M 1581.124797961933 310.81632981419534 A 58484.785382866554 58484.785382866554 0 0 1 -99.91351858332382 -49.64282696074224" stroke-opacity="1" stroke-miterlimit="10" stroke-width="0.1" stroke-dasharray=""/><path fill="none" stroke="rgb(128,128,128)" paint-order="fill stroke markers" d=" M 1581.0557731632452 600.8079085390636 A 58769.23538286655 58769.23538286655 0 0 1 -100.06243586638993 242.15305399056524" stroke-opacity="1" stroke-miterlimit="10" stroke-width="0.8" stroke-dasharray=""/><path fill="none" stroke="rgb(166,166,166)" paint-order="fill stroke markers" d=" M 1580.9683280277131 601.2493305007592 A 58769.68538286655 58769.68538286655 0 0 1 -100.16275343745838 242.59172970784857" stroke-opacity="1" stroke-miterlimit="10" stroke-width="0.1" stroke-dasharray=""/><path fill="none" stroke="rgb(89,89,89)" paint-order="fill stroke markers" d=" M 1581.1432182987755 600.366486577368 A 58768.785382866554 58768.785382866554 0 0 1 -99.96211829531967 241.7143782732819" stroke-opacity="1" stroke-miterlimit="10" stroke-width="0.1" stroke-dasharray=""/><path fill="none" stroke="rgb(128,128,128)" paint-order="fill stroke markers" d=" M 1581.048107636072 654.8353714759069 A 58822.23538286655 58822.23538286655 0 0 1 -100.01660065015676 296.5304240972764" stroke-opacity="1" stroke-miterlimit="10" stroke-width="0.8" stroke-dasharray=""/><path fill="none" stroke="rgb(166,166,166)" paint-order="fill stroke markers" d=" M 1580.9607412316982 655.276809026851 A 58822.68538286655 58822.68538286655 0 0 1 -100.11682748245948 296.9691205550771" stroke-opacity="1" stroke-miterlimit="10" stroke-width="0.1" stroke-dasharray=""/><path fill="none" stroke="rgb(89,89,89)" paint-order="fill stroke markers" d=" M 1581.1354740404458 654.3939339249628 A 58821.785382866554 58821.785382866554 0 0 1 -99.91637381785586 296.091727639483" stroke-opacity="1" stroke-miterlimit="10" stroke-width="0.1" stroke-dasharray=""/><path fill="none" stroke="rgb(128,128,128)" paint-order="fill stroke markers" d=" M 1581.0593512795022 708.8646693335759 A 58875.23538286655 58875.23538286655 0 0 1 -100.01992345727376 350.89399726152624" stroke-opacity="1" stroke-miterlimit="10" stroke-width="0.8" stroke-dasharray=""/><path fill="none" stroke="rgb(166,166,166)" paint-order="fill stroke markers" d=" M 1580.972063609066 709.3061224597259 A 58875.68538286655 58875.68538286655 0 0 1 -100.12006008990465 351.33271431703906" stroke-opacity="1" stroke-miterlimit="10" stroke-width="0.1" stroke-dasharray=""/><path fill="none" stroke="rgb(89,89,89)" paint-order="fill stroke markers" d=" M 1581.1466389499383 708.4232162074259 A 58874.785382866554 58874.785382866554 0 0 1 -99.91978682464105 350.45528020600614" stroke-opacity="1" stroke-miterlimit="10" stroke-width="0.1" stroke-dasharray=""/><path fill="none" stroke="rgb(128,128,128)" paint-order="fill stroke markers" d=" M 1581.0179014021069 762.8816523185233 A 58928.23538286655 58928.23538286655 0 0 1 -100.00144490486309 405.2599937294144" stroke-opacity="1" stroke-miterlimit="10" stroke-width="0.8" stroke-dasharray=""/><path fill="none" stroke="rgb(166,166,166)" paint-order="fill stroke markers" d=" M 1580.9306919215924 763.323120897825 A 58928.68538286655 58928.68538286655 0 0 1 -100.10149133358937 405.6987313641075" stroke-opacity="1" stroke-miterlimit="10" stroke-width="0.1" stroke-dasharray=""/><path fill="none" stroke="rgb(89,89,89)" paint-order="fill stroke markers" d=" M 1581.1051108826214 762.4401837392288 A 58927.785382866554 58927.785382866554 0 0 1 -99.901398476135 404.8212560947213" stroke-opacity="1" stroke-miterlimit="10" stroke-width="0.1" stroke-dasharray=""/><path fill="none" stroke="rgb(0,0,0)" paint-order="fill stroke markers" d=" M 13001.241891313759 -115529.88563068601 L 13001.241891313759 -115525.88563068601" stroke-opacity="1" stroke-linecap="round" stroke-miterlimit="10" stroke-width="2"/><path fill="none" stroke="rgb(0,0,0)" paint-order="fill stroke markers" d=" M 1236.0022642279928 237.90835206046177 L 1236.8069763009207 233.99013327131252" stroke-opacity="1" stroke-linecap="round" stroke-miterlimit="10"/><text fill="rgb(0,0,0)" stroke="none" font-family="sans-serif" font-size="10px" font-style="normal" font-weight="normal" text-decoration="undefined" x="1217.4403139415626" y="228.11280508757773" text-anchor="start" dominant-baseline="alphabetic" transform="matrix(1 0 0 1 0 0)" fill-opacity="1">2700 kbp</text><path fill="none" stroke="rgb(0,0,0)" paint-order="fill stroke markers" d=" M 881.4645518719881 163.94961430742842 L 882.2935134108411 160.03645410534955" stroke-opacity="1" stroke-linecap="round" stroke-miterlimit="10"/><text fill="rgb(0,0,0)" stroke="none" font-family="sans-serif" font-size="10px" font-style="normal" font-weight="normal" text-decoration="undefined" x="862.9632252503707" y="154.16671380223852" text-anchor="start" dominant-baseline="alphabetic" transform="matrix(1 0 0 1 0 0)" fill-opacity="1">2705 kbp</text><path fill="none" stroke="rgb(0,0,0)" paint-order="fill stroke markers" d=" M 527.3916525965524 87.79669990934053 L 528.2448318093138 83.8887483703802" stroke-opacity="1" stroke-linecap="round" stroke-miterlimit="10"/><text fill="rgb(0,0,0)" stroke="none" font-family="sans-serif" font-size="10px" font-style="normal" font-weight="normal" text-decoration="undefined" x="508.950870159706" y="78.02682106192515" text-anchor="start" dominant-baseline="alphabetic" transform="matrix(1 0 0 1 0 0)" fill-opacity="1">2710 kbp</text><path fill="none" stroke="rgb(0,0,0)" paint-order="fill stroke markers" d=" M 173.79714567047813 9.452529453737952 L 174.67450983634444 5.549936454146518" stroke-opacity="1" stroke-linecap="round" stroke-miterlimit="10"/><text fill="rgb(0,0,0)" stroke="none" font-family="sans-serif" font-size="10px" font-style="normal" font-weight="normal" text-decoration="undefined" x="155.4168256163921" y="-0.3039530452369945" text-anchor="start" dominant-baseline="alphabetic" transform="matrix(1 0 0 1 0 0)" fill-opacity="1">2715 kbp</text><path fill="none" stroke="rgb(0,0,0)" paint-order="fill stroke markers" d=" M 1519.9579628684842 295.493626162337 L 1520.3506079859144 293.53254742558056" stroke-opacity="1" stroke-linecap="round" stroke-miterlimit="10"/><path fill="none" stroke="rgb(0,0,0)" paint-order="fill stroke markers" d=" M 1448.9423462546438 281.22920646081184 L 1449.3374200146627 279.26861554882635" stroke-opacity="1" stroke-linecap="round" stroke-miterlimit="10"/><path fill="none" stroke="rgb(0,0,0)" paint-order="fill stroke markers" d=" M 1377.9444516706662 266.8768395091465 L 1378.341953467203 264.9167394296237" stroke-opacity="1" stroke-linecap="round" stroke-miterlimit="10"/><path fill="none" stroke="rgb(0,0,0)" paint-order="fill stroke markers" d=" M 1306.964388032382 252.4365473249054 L 1307.3643172556403 250.476941084773" stroke-opacity="1" stroke-linecap="round" stroke-miterlimit="10"/><path fill="none" stroke="rgb(0,0,0)" paint-order="fill stroke markers" d=" M 1165.0581891184356 223.29227600310696 L 1165.4629713508602 221.33366645949718" stroke-opacity="1" stroke-linecap="round" stroke-miterlimit="10"/><path fill="none" stroke="rgb(0,0,0)" paint-order="fill stroke markers" d=" M 1094.132271536766 208.5883415748831 L 1094.5394793441883 206.63023488689214" stroke-opacity="1" stroke-linecap="round" stroke-miterlimit="10"/><path fill="none" stroke="rgb(0,0,0)" paint-order="fill stroke markers" d=" M 1023.2246202883744 193.7965713326921 L 1023.6342530461097 191.83897050418454" stroke-opacity="1" stroke-linecap="round" stroke-miterlimit="10"/><path fill="none" stroke="rgb(0,0,0)" paint-order="fill stroke markers" d=" M 952.3353441503823 178.91698796809214 L 952.7474012300245 176.95989600215398" stroke-opacity="1" stroke-linecap="round" stroke-miterlimit="10"/><path fill="none" stroke="rgb(0,0,0)" paint-order="fill stroke markers" d=" M 810.6123521738227 148.8944733116732 L 811.0292559971895 146.9384080770542" stroke-opacity="1" stroke-linecap="round" stroke-miterlimit="10"/><path fill="none" stroke="rgb(0,0,0)" paint-order="fill stroke markers" d=" M 739.7788537481829 133.75158807647676 L 740.1981799859313 131.7960407090286" stroke-opacity="1" stroke-linecap="round" stroke-miterlimit="10"/><path fill="none" stroke="rgb(0,0,0)" paint-order="fill stroke markers" d=" M 668.9641652584723 118.52098183205817 L 669.3859132673279 116.5659553317164" stroke-opacity="1" stroke-linecap="round" stroke-miterlimit="10"/><path fill="none" stroke="rgb(0,0,0)" paint-order="fill stroke markers" d=" M 598.1683953393695 103.20267794322717 L 598.5925644723393 101.24817530914879" stroke-opacity="1" stroke-linecap="round" stroke-miterlimit="10"/><path fill="none" stroke="rgb(0,0,0)" paint-order="fill stroke markers" d=" M 456.63404560637355 72.30307136422925 L 457.06305503174553 70.34962545687449" stroke-opacity="1" stroke-linecap="round" stroke-miterlimit="10"/><path fill="none" stroke="rgb(0,0,0)" paint-order="fill stroke markers" d=" M 385.89568291600335 56.72181607619132 L 386.32711150223804 54.76890302769607" stroke-opacity="1" stroke-linecap="round" stroke-miterlimit="10"/><path fill="none" stroke="rgb(0,0,0)" paint-order="fill stroke markers" d=" M 315.1766730429281 41.05295794795529 L 315.61052012818254 39.10058075422421" stroke-opacity="1" stroke-linecap="round" stroke-miterlimit="10"/><path fill="none" stroke="rgb(0,0,0)" paint-order="fill stroke markers" d=" M 244.47712447511003 25.296521016658517 L 244.91338939383422 23.344682672766794" stroke-opacity="1" stroke-linecap="round" stroke-miterlimit="10"/><path fill="none" stroke="rgb(0,0,0)" paint-order="fill stroke markers" d=" M 103.13684505708079 -6.478992434997053 L 103.57794363125322 -8.429744097273215" stroke-opacity="1" stroke-linecap="round" stroke-miterlimit="10"/><path fill="none" stroke="rgb(0,0,0)" paint-order="fill stroke markers" d=" M 32.49633103271299 -22.49802020950301 L 32.93984542144972 -24.448224041669164" stroke-opacity="1" stroke-linecap="round" stroke-miterlimit="10"/><path fill="none" stroke="rgb(0,0,0)" paint-order="fill stroke markers" d=" M -38.124288035156496 -38.60452929546591 L -37.67835851223754 -40.554182305771974" stroke-opacity="1" stroke-linecap="round" stroke-miterlimit="10"/><path fill="none" stroke="rgb(0,0,0)" paint-order="fill stroke markers" d=" M -108.72490380960335 -54.798494984388526 L -108.27655983659133 -56.74759418193571" stroke-opacity="1" stroke-linecap="round" stroke-miterlimit="10"/><path fill="none" stroke="rgb(0,0,0)" paint-order="fill stroke markers" d=" M 13001.241891313759 -115979.88563068601 L 13001.241891313759 -115983.88563068601" stroke-opacity="1" stroke-linecap="round" stroke-miterlimit="10" stroke-width="2"/><path fill="none" stroke="rgb(0,0,0)" paint-order="fill stroke markers" d=" M 1145.4721560236521 678.7079658403673 L 1144.6674439507242 682.6261846295165" stroke-opacity="1" stroke-linecap="round" stroke-miterlimit="10"/><path fill="none" stroke="rgb(0,0,0)" paint-order="fill stroke markers" d=" M 788.2063787510397 604.1801370408502 L 787.3774172121866 608.0932972429218" stroke-opacity="1" stroke-linecap="round" stroke-miterlimit="10"/><path fill="none" stroke="rgb(0,0,0)" paint-order="fill stroke markers" d=" M 431.4089911609062 527.4412480430983 L 430.55581194814476 531.3491995820586" stroke-opacity="1" stroke-linecap="round" stroke-miterlimit="10"/><path fill="none" stroke="rgb(0,0,0)" paint-order="fill stroke markers" d=" M 75.09367701057636 448.49424190769787 L 74.21631284471005 452.3968349072893" stroke-opacity="1" stroke-linecap="round" stroke-miterlimit="10"/><path fill="none" stroke="rgb(0,0,0)" paint-order="fill stroke markers" d=" M 1431.612811446832 736.7363419325629 L 1431.2201663294018 738.6974206693194" stroke-opacity="1" stroke-linecap="round" stroke-miterlimit="10"/><path fill="none" stroke="rgb(0,0,0)" paint-order="fill stroke markers" d=" M 1360.0507502504734 722.362161656667 L 1359.6556764904544 724.3227525686525" stroke-opacity="1" stroke-linecap="round" stroke-miterlimit="10"/><path fill="none" stroke="rgb(0,0,0)" paint-order="fill stroke markers" d=" M 1288.5065474498588 707.8993574020424 L 1288.109045653322 709.8594574815652" stroke-opacity="1" stroke-linecap="round" stroke-miterlimit="10"/><path fill="none" stroke="rgb(0,0,0)" paint-order="fill stroke markers" d=" M 1216.9803127988962 693.3479513556667 L 1216.580383575636 695.3075575957992" stroke-opacity="1" stroke-linecap="round" stroke-miterlimit="10"/><path fill="none" stroke="rgb(0,0,0)" paint-order="fill stroke markers" d=" M 1073.9821868227118 663.9794233149223 L 1073.5774045902854 665.9380328585321" stroke-opacity="1" stroke-linecap="round" stroke-miterlimit="10"/><path fill="none" stroke="rgb(0,0,0)" paint-order="fill stroke markers" d=" M 1002.5105148665716 649.1623463739306 L 1002.1033070591493 651.1204530619216" stroke-opacity="1" stroke-linecap="round" stroke-miterlimit="10"/><path fill="none" stroke="rgb(0,0,0)" paint-order="fill stroke markers" d=" M 931.0572497978501 634.2567577478403 L 930.6476170401147 636.2143585763479" stroke-opacity="1" stroke-linecap="round" stroke-miterlimit="10"/><path fill="none" stroke="rgb(0,0,0)" paint-order="fill stroke markers" d=" M 859.6225012306768 619.2626803028106 L 859.2104441510328 621.2197722687415" stroke-opacity="1" stroke-linecap="round" stroke-miterlimit="10"/><path fill="none" stroke="rgb(0,0,0)" paint-order="fill stroke markers" d=" M 716.8089919161484 589.009151099599 L 716.3920880927799 590.9652163342107" stroke-opacity="1" stroke-linecap="round" stroke-miterlimit="10"/><path fill="none" stroke="rgb(0,0,0)" paint-order="fill stroke markers" d=" M 645.4304502546529 573.749745752415 L 645.0111240169044 575.7052931198632" stroke-opacity="1" stroke-linecap="round" stroke-miterlimit="10"/><path fill="none" stroke="rgb(0,0,0)" paint-order="fill stroke markers" d=" M 574.0708632660917 558.4019444082805 L 573.6491152572362 560.356970908615" stroke-opacity="1" stroke-linecap="round" stroke-miterlimit="10"/><path fill="none" stroke="rgb(0,0,0)" paint-order="fill stroke markers" d=" M 502.73034042105246 542.9657706117796 L 502.3061712880826 544.9202732458652" stroke-opacity="1" stroke-linecap="round" stroke-miterlimit="10"/><path fill="none" stroke="rgb(0,0,0)" paint-order="fill stroke markers" d=" M 360.10692489746725 511.8284005179012 L 359.67791547209345 513.7818464252559" stroke-opacity="1" stroke-linecap="round" stroke-miterlimit="10"/><path fill="none" stroke="rgb(0,0,0)" paint-order="fill stroke markers" d=" M 288.824251013144 496.127251987411 L 288.39282242690933 498.08016503590625" stroke-opacity="1" stroke-linecap="round" stroke-miterlimit="10"/><path fill="none" stroke="rgb(0,0,0)" paint-order="fill stroke markers" d=" M 217.56107886043355 480.3378265382562 L 217.1272317751791 482.29020373199455" stroke-opacity="1" stroke-linecap="round" stroke-miterlimit="10"/><path fill="none" stroke="rgb(0,0,0)" paint-order="fill stroke markers" d=" M 146.31751776208512 464.4601483925435 L 145.88125284336093 466.4119867364352" stroke-opacity="1" stroke-linecap="round" stroke-miterlimit="10"/><path fill="none" stroke="rgb(0,0,0)" paint-order="fill stroke markers" d=" M 3.8896658682788257 432.4401315765499 L 3.4485672941063967 434.39088323882606" stroke-opacity="1" stroke-linecap="round" stroke-miterlimit="10"/><path fill="none" stroke="rgb(0,0,0)" paint-order="fill stroke markers" d=" M -67.294406432924 416.297842027212 L -67.73792082165892 418.2480458593709" stroke-opacity="1" stroke-linecap="round" stroke-miterlimit="10"/><path fill="none" stroke="rgb(0,0,0)" paint-order="fill stroke markers" d=" M -138.45843069170405 400.06739802308584 L -138.9043602146212 402.0170510333919" stroke-opacity="1" stroke-linecap="round" stroke-miterlimit="10"/><path fill="none" stroke="rgb(0,0,0)" paint-order="fill stroke markers" d=" M -209.6022977375178 383.7488244627966 L -210.05064171053164 385.6979236603365" stroke-opacity="1" stroke-linecap="round" stroke-miterlimit="10"/><path fill="none" stroke="rgb(122,154,76)" paint-order="fill stroke markers" d=" M 705.9256597814983 593.8459641281734 L 700.7103645466832 618.2959272286316" stroke-opacity="1" stroke-linecap="round" stroke-miterlimit="10"/><path fill="none" stroke="rgb(255,47,73)" paint-order="fill stroke markers" d=" M 1521.2519384346178 761.7482057616508 L 1516.382479547221 786.2693878323407" stroke-opacity="1" stroke-linecap="round" stroke-miterlimit="10"/><path fill="none" stroke="rgb(255,47,73)" paint-order="fill stroke markers" d=" M 1264.2937549218605 710.1268817419113 L 1259.3153022709212 734.6261676335926" stroke-opacity="1" stroke-linecap="round" stroke-miterlimit="10"/><path fill="none" stroke="rgb(84,78,185)" paint-order="fill stroke markers" d=" M 594.2172600747599 569.9048072706428 L 588.954581570275 594.3446152682227" stroke-opacity="1" stroke-linecap="round" stroke-miterlimit="10"/><path fill="none" stroke="rgb(255,47,73)" paint-order="fill stroke markers" d=" M 594.2172600747599 569.9048072706428 L 583.9024102059684 617.8068309458977" stroke-opacity="1" stroke-linecap="round" stroke-miterlimit="10"/><path fill="none" stroke="rgb(84,78,185)" paint-order="fill stroke markers" d=" M 825.5369388680119 619.2299375379589 L 820.3723790613967 643.6906677397346" stroke-opacity="1" stroke-linecap="round" stroke-miterlimit="10"/><path fill="none" stroke="rgb(255,47,73)" paint-order="fill stroke markers" d=" M 825.5369388680119 619.2299375379589 L 815.4144016470455 667.1729687334373" stroke-opacity="1" stroke-linecap="round" stroke-miterlimit="10"/><path fill="none" stroke="rgb(255,47,73)" paint-order="fill stroke markers" d=" M -67.13538657708159 423.51271623850334 L -72.67859054684595 447.89042921059445" stroke-opacity="1" stroke-linecap="round" stroke-miterlimit="10"/><path fill="none" stroke="rgb(255,47,73)" paint-order="fill stroke markers" d=" M 18.117667237524074 442.83177470100054 L 12.610624992837984 467.21768222389073" stroke-opacity="1" stroke-linecap="round" stroke-miterlimit="10"/><path fill="none" stroke="rgb(255,47,73)" paint-order="fill stroke markers" d=" M 1404.8289663087744 738.5068263213034 L 1399.9101243749956 763.0181501131883" stroke-opacity="1" stroke-linecap="round" stroke-miterlimit="10"/><path fill="none" stroke="rgb(255,47,73)" paint-order="fill stroke markers" d=" M 216.47018550565008 487.2661577470644 L 211.04727830261982 511.6709129695082" stroke-opacity="1" stroke-linecap="round" stroke-miterlimit="10"/><path fill="none" stroke="rgb(84,78,185)" paint-order="fill stroke markers" d=" M 499.78329422985917 549.4891263507525 L 494.4805597395989 573.9202746439842" stroke-opacity="1" stroke-linecap="round" stroke-miterlimit="10"/><path fill="none" stroke="rgb(255,47,73)" paint-order="fill stroke markers" d=" M 499.78329422985917 549.4891263507525 L 481.75399696297245 632.5550305477373" stroke-opacity="1" stroke-linecap="round" stroke-miterlimit="10"/><path fill="none" stroke="rgb(84,78,185)" paint-order="fill stroke markers" d=" M 938.841063150805 643.0363823088846 L 931.2686436249569 679.2532079914963" stroke-opacity="1" stroke-linecap="round" stroke-miterlimit="10"/><path fill="none" stroke="rgb(255,47,73)" paint-order="fill stroke markers" d=" M 938.841063150805 643.0363823088846 L 926.3568039325146 702.7452030288623" stroke-opacity="1" stroke-linecap="round" stroke-miterlimit="10"/><path fill="none" stroke="rgb(84,78,185)" paint-order="fill stroke markers" d=" M 1090.9745577150388 674.6360724351835 L 1081.072697833668 722.6251667263859" stroke-opacity="1" stroke-linecap="round" stroke-miterlimit="10"/><path fill="none" stroke="rgb(255,47,73)" paint-order="fill stroke markers" d=" M 1090.9745577150388 674.6360724351835 L 1076.2228072795278 746.1300292363594" stroke-opacity="1" stroke-linecap="round" stroke-miterlimit="10"/><path fill="none" stroke="rgb(84,78,185)" paint-order="fill stroke markers" d=" M 730.4506016336109 599.071798491459 L 722.7473607213506 635.2610245048418" stroke-opacity="1" stroke-linecap="round" stroke-miterlimit="10"/><path fill="none" stroke="rgb(255,47,73)" paint-order="fill stroke markers" d=" M 730.4506016336109 599.071798491459 L 712.7539671054456 682.2092096032793" stroke-opacity="1" stroke-linecap="round" stroke-miterlimit="10"/><path fill="none" stroke="rgb(84,78,185)" paint-order="fill stroke markers" d=" M 1028.3885422134263 661.6869657137504 L 1023.3100258220729 686.1657048819106" stroke-opacity="1" stroke-linecap="round" stroke-miterlimit="10"/><path fill="none" stroke="rgb(255,47,73)" paint-order="fill stroke markers" d=" M 1028.3885422134263 661.6869657137504 L 1006.2462107471274 768.4142684869221" stroke-opacity="1" stroke-linecap="round" stroke-miterlimit="10"/><path fill="none" stroke="rgb(84,78,185)" paint-order="fill stroke markers" d=" M 429.4523466686678 534.178952871247 L 424.1197799521542 558.6036070594637" stroke-opacity="1" stroke-linecap="round" stroke-miterlimit="10"/><path fill="none" stroke="rgb(255,47,73)" paint-order="fill stroke markers" d=" M 429.4523466686678 534.178952871247 L 416.440883880372 593.7751090904931" stroke-opacity="1" stroke-linecap="round" stroke-miterlimit="10"/><path fill="none" stroke="rgb(84,78,185)" paint-order="fill stroke markers" d=" M 370.69116560688053 521.3183696422711 L 365.33367420345166 545.7375687663662" stroke-opacity="1" stroke-linecap="round" stroke-miterlimit="10"/><path fill="none" stroke="rgb(255,47,73)" paint-order="fill stroke markers" d=" M 370.69116560688053 521.3183696422711 L 357.61888658251337 580.9012155050586" stroke-opacity="1" stroke-linecap="round" stroke-miterlimit="10"/><path fill="none" stroke="rgb(255,47,73)" paint-order="fill stroke markers" d=" M 93.46572561540233 459.7956639221229 L 87.99064370117048 484.18876700542023" stroke-opacity="1" stroke-linecap="round" stroke-miterlimit="10"/><path fill="none" stroke="rgb(84,78,185)" paint-order="fill stroke markers" d=" M 671.5873426257767 586.5107405266317 L 656.3161499846829 657.8955475608964" stroke-opacity="1" stroke-linecap="round" stroke-miterlimit="10"/><path fill="none" stroke="rgb(255,47,73)" paint-order="fill stroke markers" d=" M 671.5873426257767 586.5107405266317 L 646.274817837113 704.8335028710935" stroke-opacity="1" stroke-linecap="round" stroke-miterlimit="10"/><path fill="none" stroke="rgb(255,47,73)" paint-order="fill stroke markers" d=" M 135.9923317109151 469.324334264762 L 122.67714572943987 528.853367704578" stroke-opacity="1" stroke-linecap="round" stroke-miterlimit="10"/><path fill="none" stroke="rgb(255,47,73)" paint-order="fill stroke markers" d=" M 289.9873174421955 503.55290412726754 L 284.5955939469004 527.9645676869332" stroke-opacity="1" stroke-linecap="round" stroke-miterlimit="10"/><path fill="none" stroke="rgb(255,47,73)" paint-order="fill stroke markers" d=" M 163.1004819285481 475.38105619728594 L 147.19949055509642 546.6282208660705" stroke-opacity="1" stroke-linecap="round" stroke-miterlimit="10"/><path fill="none" stroke="rgb(255,47,73)" paint-order="fill stroke markers" d=" M 1455.8651351267836 748.7251356237466 L 1450.967941167164 773.2407937083626" stroke-opacity="1" stroke-linecap="round" stroke-miterlimit="10"/><path fill="none" stroke="rgb(33,254,91)" paint-order="fill stroke markers" d=" M 319.03640668111984 509.9611925076897 L 313.6570049166221 534.3755742663197" stroke-opacity="1" stroke-linecap="round" stroke-miterlimit="10"/><path fill="none" stroke="rgb(33,254,91)" paint-order="fill stroke markers" d=" M 283.14432202062017 502.0410876531387 L 272.57085489671226 549.8866913485617" stroke-opacity="1" stroke-linecap="round" stroke-miterlimit="10"/><path fill="none" stroke="rgb(255,47,73)" paint-order="fill stroke markers" d=" M 329.4449650209026 512.2536005758375 L 318.90999094392464 560.107694666076" stroke-opacity="1" stroke-linecap="round" stroke-miterlimit="10"/><path fill="none" stroke="rgb(33,254,91)" paint-order="fill stroke markers" d=" M 1177.3526545353725 692.3915910649594 L 1172.337324141885 716.88335419145" stroke-opacity="1" stroke-linecap="round" stroke-miterlimit="10"/><rect fill="rgb(255,255,255)" stroke="none" x="606.7904426716832" y="618.2959272286316" width="187.83984375" height="12" transform="matrix(1 0 0 1 0 0)" fill-opacity="0.75"/><text fill="rgb(122,154,76)" stroke="none" font-family="monospace" font-size="12px" font-style="normal" font-weight="normal" text-decoration="undefined" x="606.7904426716832" y="629.2959272286316" text-anchor="start" dominant-baseline="alphabetic" transform="matrix(1 0 0 1 0 0)" fill-opacity="1">NZ_JAGFFX010000002.1_RGP_0</text><rect fill="rgb(255,255,255)" stroke="none" x="1501.933260797221" y="786.2693878323407" width="28.8984375" height="12" transform="matrix(1 0 0 1 0 0)" fill-opacity="0.75"/><text fill="rgb(255,47,73)" stroke="none" font-family="monospace" font-size="12px" font-style="normal" font-weight="normal" text-decoration="undefined" x="1501.933260797221" y="797.2693878323407" text-anchor="start" dominant-baseline="alphabetic" transform="matrix(1 0 0 1 0 0)" fill-opacity="1">entF</text><rect fill="rgb(255,255,255)" stroke="none" x="1244.8660835209212" y="734.6261676335926" width="28.8984375" height="12" transform="matrix(1 0 0 1 0 0)" fill-opacity="0.75"/><text fill="rgb(255,47,73)" stroke="none" font-family="monospace" font-size="12px" font-style="normal" font-weight="normal" text-decoration="undefined" x="1244.8660835209212" y="745.6261676335926" text-anchor="start" dominant-baseline="alphabetic" transform="matrix(1 0 0 1 0 0)" fill-opacity="1">fepA</text><rect fill="rgb(255,255,255)" stroke="none" x="552.831534695275" y="594.3446152682227" width="72.24609375" height="12" transform="matrix(1 0 0 1 0 0)" fill-opacity="0.75"/><text fill="rgb(84,78,185)" stroke="none" font-family="monospace" font-size="12px" font-style="normal" font-weight="normal" text-decoration="undefined" x="552.831534695275" y="605.3446152682227" text-anchor="start" dominant-baseline="alphabetic" transform="matrix(1 0 0 1 0 0)" fill-opacity="1">module_752</text><rect fill="rgb(255,255,255)" stroke="none" x="569.4531914559684" y="617.8068309458977" width="28.8984375" height="12" transform="matrix(1 0 0 1 0 0)" fill-opacity="0.75"/><text fill="rgb(255,47,73)" stroke="none" font-family="monospace" font-size="12px" font-style="normal" font-weight="normal" text-decoration="undefined" x="569.4531914559684" y="628.8068309458977" text-anchor="start" dominant-baseline="alphabetic" transform="matrix(1 0 0 1 0 0)" fill-opacity="1">rbsA</text><rect fill="rgb(255,255,255)" stroke="none" x="784.2493321863967" y="643.6906677397346" width="72.24609375" height="12" transform="matrix(1 0 0 1 0 0)" fill-opacity="0.75"/><text fill="rgb(84,78,185)" stroke="none" font-family="monospace" font-size="12px" font-style="normal" font-weight="normal" text-decoration="undefined" x="784.2493321863967" y="654.6906677397346" text-anchor="start" dominant-baseline="alphabetic" transform="matrix(1 0 0 1 0 0)" fill-opacity="1">module_752</text><rect fill="rgb(255,255,255)" stroke="none" x="714.2698703970455" y="667.1729687334373" width="202.2890625" height="12" transform="matrix(1 0 0 1 0 0)" fill-opacity="0.75"/><text fill="rgb(255,47,73)" stroke="none" font-family="monospace" font-size="12px" font-style="normal" font-weight="normal" text-decoration="undefined" x="714.2698703970455" y="678.1729687334373" text-anchor="start" dominant-baseline="alphabetic" transform="matrix(1 0 0 1 0 0)" fill-opacity="1">Putative carbohydrate kinase</text><rect fill="rgb(255,255,255)" stroke="none" x="-271.35534835934595" y="447.89042921059445" width="397.353515625" height="12" transform="matrix(1 0 0 1 0 0)" fill-opacity="0.75"/><text fill="rgb(255,47,73)" stroke="none" font-family="monospace" font-size="12px" font-style="normal" font-weight="normal" text-decoration="undefined" x="-271.35534835934595" y="458.89042921059445" text-anchor="start" dominant-baseline="alphabetic" transform="matrix(1 0 0 1 0 0)" fill-opacity="1">Phenylalanine:proton symporter, AAT family (TC 2-A3-11)</text><rect fill="rgb(255,255,255)" stroke="none" x="-1.8385937571620161" y="467.21768222389073" width="28.8984375" height="12" transform="matrix(1 0 0 1 0 0)" fill-opacity="0.75"/><text fill="rgb(255,47,73)" stroke="none" font-family="monospace" font-size="12px" font-style="normal" font-weight="normal" text-decoration="undefined" x="-1.8385937571620161" y="478.21768222389073" text-anchor="start" dominant-baseline="alphabetic" transform="matrix(1 0 0 1 0 0)" fill-opacity="1">ybdG</text><rect fill="rgb(255,255,255)" stroke="none" x="1389.0732103124956" y="763.0181501131883" width="21.673828125" height="12" transform="matrix(1 0 0 1 0 0)" fill-opacity="0.75"/><text fill="rgb(255,47,73)" stroke="none" font-family="monospace" font-size="12px" font-style="normal" font-weight="normal" text-decoration="undefined" x="1389.0732103124956" y="774.0181501131883" text-anchor="start" dominant-baseline="alphabetic" transform="matrix(1 0 0 1 0 0)" fill-opacity="1">fes</text><rect fill="rgb(255,255,255)" stroke="none" x="77.39200486511982" y="511.6709129695082" width="267.310546875" height="12" transform="matrix(1 0 0 1 0 0)" fill-opacity="0.75"/><text fill="rgb(255,47,73)" stroke="none" font-family="monospace" font-size="12px" font-style="normal" font-weight="normal" text-decoration="undefined" x="77.39200486511982" y="522.6709129695082" text-anchor="start" dominant-baseline="alphabetic" transform="matrix(1 0 0 1 0 0)" fill-opacity="1">Putative glutamate--cysteine ligase 2</text><rect fill="rgb(255,255,255)" stroke="none" x="458.3575128645989" y="573.9202746439842" width="72.24609375" height="12" transform="matrix(1 0 0 1 0 0)" fill-opacity="0.75"/><text fill="rgb(84,78,185)" stroke="none" font-family="monospace" font-size="12px" font-style="normal" font-weight="normal" text-decoration="undefined" x="458.3575128645989" y="584.9202746439842" text-anchor="start" dominant-baseline="alphabetic" transform="matrix(1 0 0 1 0 0)" fill-opacity="1">module_752</text><rect fill="rgb(255,255,255)" stroke="none" x="337.26180946297245" y="632.5550305477373" width="288.984375" height="12" transform="matrix(1 0 0 1 0 0)" fill-opacity="0.75"/><text fill="rgb(255,47,73)" stroke="none" font-family="monospace" font-size="12px" font-style="normal" font-weight="normal" text-decoration="undefined" x="337.26180946297245" y="643.5550305477373" text-anchor="start" dominant-baseline="alphabetic" transform="matrix(1 0 0 1 0 0)" fill-opacity="1">Ribose ABC transporter, permease protein</text><rect fill="rgb(255,255,255)" stroke="none" x="895.1455967499569" y="679.2532079914963" width="72.24609375" height="12" transform="matrix(1 0 0 1 0 0)" fill-opacity="0.75"/><text fill="rgb(84,78,185)" stroke="none" font-family="monospace" font-size="12px" font-style="normal" font-weight="normal" text-decoration="undefined" x="895.1455967499569" y="690.2532079914963" text-anchor="start" dominant-baseline="alphabetic" transform="matrix(1 0 0 1 0 0)" fill-opacity="1">module_752</text><rect fill="rgb(255,255,255)" stroke="none" x="785.4769211200146" y="702.7452030288623" width="281.759765625" height="12" transform="matrix(1 0 0 1 0 0)" fill-opacity="0.75"/><text fill="rgb(255,47,73)" stroke="none" font-family="monospace" font-size="12px" font-style="normal" font-weight="normal" text-decoration="undefined" x="785.4769211200146" y="713.7452030288623" text-anchor="start" dominant-baseline="alphabetic" transform="matrix(1 0 0 1 0 0)" fill-opacity="1">Sugar-binding transcriptional regulator</text><rect fill="rgb(255,255,255)" stroke="none" x="1044.949650958668" y="722.6251667263859" width="72.24609375" height="12" transform="matrix(1 0 0 1 0 0)" fill-opacity="0.75"/><text fill="rgb(84,78,185)" stroke="none" font-family="monospace" font-size="12px" font-style="normal" font-weight="normal" text-decoration="undefined" x="1044.949650958668" y="733.6251667263859" text-anchor="start" dominant-baseline="alphabetic" transform="matrix(1 0 0 1 0 0)" fill-opacity="1">module_752</text><rect fill="rgb(255,255,255)" stroke="none" x="920.8937057170278" y="746.1300292363594" width="310.658203125" height="12" transform="matrix(1 0 0 1 0 0)" fill-opacity="0.75"/><text fill="rgb(255,47,73)" stroke="none" font-family="monospace" font-size="12px" font-style="normal" font-weight="normal" text-decoration="undefined" x="920.8937057170278" y="757.1300292363594" text-anchor="start" dominant-baseline="alphabetic" transform="matrix(1 0 0 1 0 0)" fill-opacity="1">Apulose-4-phosphate transketolase subunit B</text><rect fill="rgb(255,255,255)" stroke="none" x="686.6243138463506" y="635.2610245048418" width="72.24609375" height="12" transform="matrix(1 0 0 1 0 0)" fill-opacity="0.75"/><text fill="rgb(84,78,185)" stroke="none" font-family="monospace" font-size="12px" font-style="normal" font-weight="normal" text-decoration="undefined" x="686.6243138463506" y="646.2610245048418" text-anchor="start" dominant-baseline="alphabetic" transform="matrix(1 0 0 1 0 0)" fill-opacity="1">module_752</text><rect fill="rgb(255,255,255)" stroke="none" x="575.4863889804456" y="682.2092096032793" width="274.53515625" height="12" transform="matrix(1 0 0 1 0 0)" fill-opacity="0.75"/><text fill="rgb(255,47,73)" stroke="none" font-family="monospace" font-size="12px" font-style="normal" font-weight="normal" text-decoration="undefined" x="575.4863889804456" y="693.2092096032793" text-anchor="start" dominant-baseline="alphabetic" transform="matrix(1 0 0 1 0 0)" fill-opacity="1">Peripla-BP-4 domain-containing protein</text><rect fill="rgb(255,255,255)" stroke="none" x="987.1869789470729" y="686.1657048819106" width="72.24609375" height="12" transform="matrix(1 0 0 1 0 0)" fill-opacity="0.75"/><text fill="rgb(84,78,185)" stroke="none" font-family="monospace" font-size="12px" font-style="normal" font-weight="normal" text-decoration="undefined" x="987.1869789470729" y="697.1657048819106" text-anchor="start" dominant-baseline="alphabetic" transform="matrix(1 0 0 1 0 0)" fill-opacity="1">module_752</text><rect fill="rgb(255,255,255)" stroke="none" x="850.9171091846274" y="768.4142684869221" width="310.658203125" height="12" transform="matrix(1 0 0 1 0 0)" fill-opacity="0.75"/><text fill="rgb(255,47,73)" stroke="none" font-family="monospace" font-size="12px" font-style="normal" font-weight="normal" text-decoration="undefined" x="850.9171091846274" y="779.4142684869221" text-anchor="start" dominant-baseline="alphabetic" transform="matrix(1 0 0 1 0 0)" fill-opacity="1">Apulose-4-phosphate transketolase subunit A</text><rect fill="rgb(255,255,255)" stroke="none" x="387.9967330771542" y="558.6036070594637" width="72.24609375" height="12" transform="matrix(1 0 0 1 0 0)" fill-opacity="0.75"/><text fill="rgb(84,78,185)" stroke="none" font-family="monospace" font-size="12px" font-style="normal" font-weight="normal" text-decoration="undefined" x="387.9967330771542" y="569.6036070594637" text-anchor="start" dominant-baseline="alphabetic" transform="matrix(1 0 0 1 0 0)" fill-opacity="1">module_752</text><rect fill="rgb(255,255,255)" stroke="none" x="362.256313567872" y="593.7751090904931" width="108.369140625" height="12" transform="matrix(1 0 0 1 0 0)" fill-opacity="0.75"/><text fill="rgb(255,47,73)" stroke="none" font-family="monospace" font-size="12px" font-style="normal" font-weight="normal" text-decoration="undefined" x="362.256313567872" y="604.7751090904931" text-anchor="start" dominant-baseline="alphabetic" transform="matrix(1 0 0 1 0 0)" fill-opacity="1">MFS transporter</text><rect fill="rgb(255,255,255)" stroke="none" x="329.21062732845166" y="545.7375687663662" width="72.24609375" height="12" transform="matrix(1 0 0 1 0 0)" fill-opacity="0.75"/><text fill="rgb(84,78,185)" stroke="none" font-family="monospace" font-size="12px" font-style="normal" font-weight="normal" text-decoration="undefined" x="329.21062732845166" y="556.7375687663662" text-anchor="start" dominant-baseline="alphabetic" transform="matrix(1 0 0 1 0 0)" fill-opacity="1">module_752</text><rect fill="rgb(255,255,255)" stroke="none" x="267.31126939501337" y="580.9012155050586" width="180.615234375" height="12" transform="matrix(1 0 0 1 0 0)" fill-opacity="0.75"/><text fill="rgb(255,47,73)" stroke="none" font-family="monospace" font-size="12px" font-style="normal" font-weight="normal" text-decoration="undefined" x="267.31126939501337" y="591.9012155050586" text-anchor="start" dominant-baseline="alphabetic" transform="matrix(1 0 0 1 0 0)" fill-opacity="1">Short chain dehydrogenase</text><rect fill="rgb(255,255,255)" stroke="none" x="-5.929278173829516" y="484.18876700542023" width="187.83984375" height="12" transform="matrix(1 0 0 1 0 0)" fill-opacity="0.75"/><text fill="rgb(255,47,73)" stroke="none" font-family="monospace" font-size="12px" font-style="normal" font-weight="normal" text-decoration="undefined" x="-5.929278173829516" y="495.18876700542023" text-anchor="start" dominant-baseline="alphabetic" transform="matrix(1 0 0 1 0 0)" fill-opacity="1">Dihydropteridine reductase</text><rect fill="rgb(255,255,255)" stroke="none" x="620.1931031096829" y="657.8955475608964" width="72.24609375" height="12" transform="matrix(1 0 0 1 0 0)" fill-opacity="0.75"/><text fill="rgb(84,78,185)" stroke="none" font-family="monospace" font-size="12px" font-style="normal" font-weight="normal" text-decoration="undefined" x="620.1931031096829" y="668.8955475608964" text-anchor="start" dominant-baseline="alphabetic" transform="matrix(1 0 0 1 0 0)" fill-opacity="1">module_752</text><rect fill="rgb(255,255,255)" stroke="none" x="606.539466274613" y="704.8335028710935" width="79.470703125" height="12" transform="matrix(1 0 0 1 0 0)" fill-opacity="0.75"/><text fill="rgb(255,47,73)" stroke="none" font-family="monospace" font-size="12px" font-style="normal" font-weight="normal" text-decoration="undefined" x="606.539466274613" y="715.8335028710935" text-anchor="start" dominant-baseline="alphabetic" transform="matrix(1 0 0 1 0 0)" fill-opacity="1">Lipoprotein</text><rect fill="rgb(255,255,255)" stroke="none" x="50.43105197943987" y="528.853367704578" width="144.4921875" height="12" transform="matrix(1 0 0 1 0 0)" fill-opacity="0.75"/><text fill="rgb(255,47,73)" stroke="none" font-family="monospace" font-size="12px" font-style="normal" font-weight="normal" text-decoration="undefined" x="50.43105197943987" y="539.853367704578" text-anchor="start" dominant-baseline="alphabetic" transform="matrix(1 0 0 1 0 0)" fill-opacity="1">hypothetical protein</text><rect fill="rgb(255,255,255)" stroke="none" x="270.1463751969004" y="527.9645676869332" width="28.8984375" height="12" transform="matrix(1 0 0 1 0 0)" fill-opacity="0.75"/><text fill="rgb(255,47,73)" stroke="none" font-family="monospace" font-size="12px" font-style="normal" font-weight="normal" text-decoration="undefined" x="270.1463751969004" y="538.9645676869332" text-anchor="start" dominant-baseline="alphabetic" transform="matrix(1 0 0 1 0 0)" fill-opacity="1">hokG</text><rect fill="rgb(255,255,255)" stroke="none" x="132.75027180509642" y="546.6282208660705" width="28.8984375" height="12" transform="matrix(1 0 0 1 0 0)" fill-opacity="0.75"/><text fill="rgb(255,47,73)" stroke="none" font-family="monospace" font-size="12px" font-style="normal" font-weight="normal" text-decoration="undefined" x="132.75027180509642" y="557.6282208660705" text-anchor="start" dominant-baseline="alphabetic" transform="matrix(1 0 0 1 0 0)" fill-opacity="1">ybdJ</text><rect fill="rgb(255,255,255)" stroke="none" x="1436.518722417164" y="773.2407937083626" width="28.8984375" height="12" transform="matrix(1 0 0 1 0 0)" fill-opacity="0.75"/><text fill="rgb(255,47,73)" stroke="none" font-family="monospace" font-size="12px" font-style="normal" font-weight="normal" text-decoration="undefined" x="1436.518722417164" y="784.2407937083626" text-anchor="start" dominant-baseline="alphabetic" transform="matrix(1 0 0 1 0 0)" fill-opacity="1">ybdZ</text><rect fill="rgb(255,255,255)" stroke="none" x="302.8200908541221" y="534.3755742663197" width="21.673828125" height="12" transform="matrix(1 0 0 1 0 0)" fill-opacity="0.75"/><text fill="rgb(33,254,91)" stroke="none" font-family="monospace" font-size="12px" font-style="normal" font-weight="normal" text-decoration="undefined" x="302.8200908541221" y="545.3755742663197" text-anchor="start" dominant-baseline="alphabetic" transform="matrix(1 0 0 1 0 0)" fill-opacity="1">sok</text><rect fill="rgb(255,255,255)" stroke="none" x="261.73394083421226" y="549.8866913485617" width="21.673828125" height="12" transform="matrix(1 0 0 1 0 0)" fill-opacity="0.75"/><text fill="rgb(33,254,91)" stroke="none" font-family="monospace" font-size="12px" font-style="normal" font-weight="normal" text-decoration="undefined" x="261.73394083421226" y="560.8866913485617" text-anchor="start" dominant-baseline="alphabetic" transform="matrix(1 0 0 1 0 0)" fill-opacity="1">sok</text><rect fill="rgb(255,255,255)" stroke="none" x="304.46077219392464" y="560.107694666076" width="28.8984375" height="12" transform="matrix(1 0 0 1 0 0)" fill-opacity="0.75"/><text fill="rgb(255,47,73)" stroke="none" font-family="monospace" font-size="12px" font-style="normal" font-weight="normal" text-decoration="undefined" x="304.46077219392464" y="571.107694666076" text-anchor="start" dominant-baseline="alphabetic" transform="matrix(1 0 0 1 0 0)" fill-opacity="1">hokE</text><rect fill="rgb(255,255,255)" stroke="none" x="1154.275800704385" y="716.88335419145" width="36.123046875" height="12" transform="matrix(1 0 0 1 0 0)" fill-opacity="0.75"/><text fill="rgb(33,254,91)" stroke="none" font-family="monospace" font-size="12px" font-style="normal" font-weight="normal" text-decoration="undefined" x="1154.275800704385" y="727.88335419145" text-anchor="start" dominant-baseline="alphabetic" transform="matrix(1 0 0 1 0 0)" fill-opacity="1">ES036</text><path fill="rgb(229,156,4)" stroke="none" paint-order="stroke fill markers" d=" M 101.19154700187391 281.14218450535554 L 27.22506472479472 264.44834149756207 L 17.01138453922067 241.62823323618795 L 36.0565234661608 225.43545469717355 L 109.97265649942346 242.11793414750719 Z" fill-opacity="1"/><path fill="rgb(251,188,57)" stroke="none" paint-order="stroke fill markers" d=" M 100.09390831468045 286.02021580008295 L 26.121132382124415 269.32495234760427 L 17.01138453922067 241.62823323618795 L 27.22506472479472 264.44834149756207 L 101.19154700187391 281.14218450535554 Z" fill-opacity="1"/><path fill="rgb(153,104,2)" stroke="none" paint-order="stroke fill markers" d=" M 111.07029518661875 237.2399028527725 L 37.1604558088311 220.55884384712408 L 17.01138453922067 241.62823323618795 L 36.0565234661608 225.43545469717355 L 109.97265649942346 242.11793414750719 Z" fill-opacity="1"/><path fill="rgb(229,156,4)" stroke="none" paint-order="stroke fill markers" d=" M 155.23334208340202 293.2757375002402 L 123.42930642624015 286.14152163827384 L 113.17734233910232 263.33858681948914 L 132.1952786029833 247.11386821410997 L 163.97766514156683 254.2432277903281 Z" fill-opacity="1"/><path fill="rgb(251,188,57)" stroke="none" paint-order="stroke fill markers" d=" M 154.14030170113256 298.1548012139756 L 122.33355990414748 291.01997831629706 L 113.17734233910232 263.33858681948914 L 123.42930642624015 286.14152163827384 L 155.23334208340202 293.2757375002402 Z" fill-opacity="1"/><path fill="rgb(153,104,2)" stroke="none" paint-order="stroke fill markers" d=" M 165.07070552383811 249.36416407658544 L 133.29102512507598 242.23541153609403 L 113.17734233910232 263.33858681948914 L 132.1952786029833 247.11386821410997 L 163.97766514156683 254.2432277903281 Z" fill-opacity="1"/><path fill="rgb(229,156,4)" stroke="none" paint-order="stroke fill markers" d=" M 188.04746619192156 300.61711731946707 L 175.41600410603678 297.7934621573513 L 165.1433702421582 274.99983152305504 L 184.14658875540044 258.75787721641973 L 196.7694525607567 261.57961030657316 Z" fill-opacity="1"/><path fill="rgb(251,188,57)" stroke="none" paint-order="stroke fill markers" d=" M 186.95721789581694 305.4968056960788 L 174.32468102486564 302.67291027496685 L 165.1433702421582 274.99983152305504 L 175.41600410603678 297.7934621573513 L 188.04746619192156 300.61711731946707 Z" fill-opacity="1"/><path fill="rgb(153,104,2)" stroke="none" paint-order="stroke fill markers" d=" M 197.8597008568613 256.6999219299614 L 185.23791183657158 253.8784290988042 L 165.1433702421582 274.99983152305504 L 184.14658875540044 258.75787721641973 L 196.7694525607567 261.57961030657316 Z" fill-opacity="1"/><path fill="rgb(229,156,4)" stroke="none" paint-order="stroke fill markers" d=" M 210.28106486801335 305.5801523308619 L 207.2382028172451 304.90145211656636 L 196.95292276251348 282.1135250895095 L 215.94712598437764 265.8610287419506 L 218.9879167482777 266.5392669626308 Z" fill-opacity="1"/><path fill="rgb(251,188,57)" stroke="none" paint-order="stroke fill markers" d=" M 209.19270838297962 310.4602630018926 L 206.14958742135423 309.78150503839424 L 196.95292276251348 282.1135250895095 L 207.2382028172451 304.90145211656636 L 210.28106486801335 305.5801523308619 Z" fill-opacity="1"/><path fill="rgb(153,104,2)" stroke="none" paint-order="stroke fill markers" d=" M 220.07627323331144 261.65915629160736 L 217.03574138026852 260.9809758201227 L 196.95292276251348 282.1135250895095 L 215.94712598437764 265.8610287419506 L 218.9879167482777 266.5392669626308 Z" fill-opacity="1"/><path fill="rgb(229,156,4)" stroke="none" paint-order="stroke fill markers" d=" M 294.4025186292947 324.2760808063176 L 229.54450321851073 309.8728658105756 L 219.25036142634053 287.08894058340957 L 238.23824240875183 270.8290583772323 L 303.0521087410507 285.22246905403154 Z" fill-opacity="1"/><path fill="rgb(251,188,57)" stroke="none" paint-order="stroke fill markers" d=" M 293.3213198653266 329.15778227536066 L 228.4577858197299 314.7533417397426 L 219.25036142634053 287.08894058340957 L 229.54450321851073 309.8728658105756 L 294.4025186292947 324.2760808063176 Z" fill-opacity="1"/><path fill="rgb(153,104,2)" stroke="none" paint-order="stroke fill markers" d=" M 304.13330750502064 280.3407675849958 L 239.32495980753265 265.9485824480653 L 219.25036142634053 287.08894058340957 L 238.23824240875183 270.8290583772323 L 303.0521087410507 285.22246905403154 Z" fill-opacity="1"/><path fill="rgb(0,216,96)" stroke="none" paint-order="stroke fill markers" d=" M 436.3482442536024 355.5300986083603 L 395.1259017985303 346.4915694763913 L 384.7660512607654 323.73744675479975 L 403.706929150223 307.4228355630694 L 444.9012114122579 316.45521213657776 Z" fill-opacity="1"/><path fill="rgb(37,255,134)" stroke="none" paint-order="stroke fill markers" d=" M 435.27912335877045 360.414459417334 L 394.0532733795699 351.3751612155538 L 384.7660512607654 323.73744675479975 L 395.1259017985303 346.4915694763913 L 436.3482442536024 355.5300986083603 Z" fill-opacity="1"/><path fill="rgb(0,139,62)" stroke="none" paint-order="stroke fill markers" d=" M 445.97033230708985 311.57085132760403 L 404.77955756918345 302.5392438239069 L 384.7660512607654 323.73744675479975 L 403.706929150223 307.4228355630694 L 444.9012114122579 316.45521213657776 Z" fill-opacity="1"/><path fill="rgb(0,216,96)" stroke="none" paint-order="stroke fill markers" d=" M 495.36687813290155 368.41669789312436 L 453.28202364304525 359.23405800065666 L 442.8991249757164 336.4904430888273 L 461.8234639186994 320.15665023072506 L 503.8796711005525 329.33303946802334 Z" fill-opacity="1"/><path fill="rgb(37,255,134)" stroke="none" paint-order="stroke fill markers" d=" M 494.30277901194495 373.30215519626654 L 452.214343608588 364.1187339718963 L 442.8991249757164 336.4904430888273 L 453.28202364304525 359.23405800065666 L 495.36687813290155 368.41669789312436 Z" fill-opacity="1"/><path fill="rgb(0,139,62)" stroke="none" paint-order="stroke fill markers" d=" M 504.9437702215091 324.44758216488844 L 462.89114395315664 315.27197425948543 L 442.8991249757164 336.4904430888273 L 461.8234639186994 320.15665023072506 L 503.8796711005525 329.33303946802334 Z" fill-opacity="1"/><path fill="rgb(0,216,96)" stroke="none" paint-order="stroke fill markers" d=" M 575.0985550400655 385.7250477165144 L 513.7979664248815 372.428066052933 L 503.39110112528215 349.6954076375696 L 522.2982132861125 333.34167707546294 L 583.5570743757035 346.62960743701115 Z" fill-opacity="1"/><path fill="rgb(37,255,134)" stroke="none" paint-order="stroke fill markers" d=" M 574.0412401231115 390.6119777514541 L 512.7354355672287 377.31386467511766 L 503.39110112528215 349.6954076375696 L 513.7979664248815 372.428066052933 L 575.0985550400655 385.7250477165144 Z" fill-opacity="1"/><path fill="rgb(0,139,62)" stroke="none" paint-order="stroke fill markers" d=" M 584.6143892926575 341.7426774020714 L 523.3607441437671 328.4558784532783 L 503.39110112528215 349.6954076375696 L 522.2982132861125 333.34167707546294 L 583.5570743757035 346.62960743701115 Z" fill-opacity="1"/><path fill="rgb(0,216,96)" stroke="none" paint-order="stroke fill markers" d=" M 686.2364845890024 409.6578508988241 L 590.9741265452758 389.157520594832 L 580.5367212646561 366.4388680158736 L 599.4218393237297 350.0597438190016 L 694.6193519463413 370.5461194762829 Z" fill-opacity="1"/><path fill="rgb(37,255,134)" stroke="none" paint-order="stroke fill markers" d=" M 685.1886261693344 414.54681732664176 L 589.9181624479697 394.0447426918108 L 580.5367212646561 366.4388680158736 L 590.9741265452758 389.157520594832 L 686.2364845890024 409.6578508988241 Z" fill-opacity="1"/><path fill="rgb(0,139,62)" stroke="none" paint-order="stroke fill markers" d=" M 695.6672103660076 365.65715304846526 L 600.4778034210358 345.1725217220228 L 580.5367212646561 366.4388680158736 L 599.4218393237297 350.0597438190016 L 694.6193519463413 370.5461194762829 Z" fill-opacity="1"/><path fill="rgb(0,216,96)" stroke="none" paint-order="stroke fill markers" d=" M 730.5052886705435 419.1282061437887 L 700.9799485555341 412.81585801912297 L 690.4990598980166 390.1172330179834 L 709.35277998526 373.7019769300605 L 738.8580220977365 380.01002821722795 Z" fill-opacity="1"/><path fill="rgb(37,255,134)" stroke="none" paint-order="stroke fill markers" d=" M 729.4611969921461 424.0179783846106 L 699.9333446268174 417.7050931552585 L 690.4990598980166 390.1172330179834 L 700.9799485555341 412.81585801912297 L 730.5052886705435 419.1282061437887 Z" fill-opacity="1"/><path fill="rgb(0,139,62)" stroke="none" paint-order="stroke fill markers" d=" M 739.9021137761356 375.12025597640604 L 710.3993839139748 368.81274179392494 L 690.4990598980166 390.1172330179834 L 709.35277998526 373.7019769300605 L 738.8580220977365 380.01002821722795 Z" fill-opacity="1"/><path fill="rgb(0,216,96)" stroke="none" paint-order="stroke fill markers" d=" M 800.4107235328847 434.01036303531146 L 748.4543663322111 422.95786351290735 L 737.9547292391362 400.2679048327336 L 756.7948817593078 383.8370787251479 L 808.715872085475 394.8820547723735 Z" fill-opacity="1"/><path fill="rgb(37,255,134)" stroke="none" paint-order="stroke fill markers" d=" M 799.3725799638123 438.90140156817506 L 747.4118019038233 427.8479616113764 L 737.9547292391362 400.2679048327336 L 748.4543663322111 422.95786351290735 L 800.4107235328847 434.01036303531146 Z" fill-opacity="1"/><path fill="rgb(0,139,62)" stroke="none" paint-order="stroke fill markers" d=" M 809.7540156545492 389.99101623950264 L 757.8374461876956 378.94698062667885 L 737.9547292391362 400.2679048327336 L 756.7948817593078 383.8370787251479 L 808.715872085475 394.8820547723735 Z" fill-opacity="1"/><path fill="rgb(0,216,96)" stroke="none" paint-order="stroke fill markers" d=" M 916.0576390969654 458.4353860604897 L 822.4229173151543 438.67813986747205 L 811.8940896677268 416.00171174563 L 830.7130820902603 399.5466542324866 L 924.2840663886673 419.2904515987466 Z" fill-opacity="1"/><path fill="rgb(37,255,134)" stroke="none" paint-order="stroke fill markers" d=" M 915.0293356855036 463.3285028682076 L 821.3866467182652 443.56957557184796 L 811.8940896677268 416.00171174563 L 822.4229173151543 438.67813986747205 L 916.0576390969654 458.4353860604897 Z" fill-opacity="1"/><path fill="rgb(0,139,62)" stroke="none" paint-order="stroke fill markers" d=" M 925.3123698001309 414.3973347910287 L 831.7493526871494 394.6552185281107 L 811.8940896677268 416.00171174563 L 830.7130820902603 399.5466542324866 L 924.2840663886673 419.2904515987466 Z" fill-opacity="1"/><path fill="rgb(0,216,96)" stroke="none" paint-order="stroke fill markers" d=" M 1008.7386493669856 477.8346257026351 L 955.6740415005243 466.7466472662709 L 945.0926923824063 444.09467925386707 L 963.8735017682138 427.5960552998804 L 1016.901988370053 438.67648611045297 Z" fill-opacity="1"/><path fill="rgb(37,255,134)" stroke="none" paint-order="stroke fill markers" d=" M 1007.718231991601 482.7293931516542 L 954.6491089670635 471.6404712620715 L 945.0926923824063 444.09467925386707 L 955.6740415005243 466.7466472662709 L 1008.7386493669856 477.8346257026351 Z" fill-opacity="1"/><path fill="rgb(0,139,62)" stroke="none" paint-order="stroke fill markers" d=" M 1017.9224057454358 433.78171866142657 L 964.8984343016746 422.70223130408704 L 945.0926923824063 444.09467925386707 L 963.8735017682138 427.5960552998804 L 1016.901988370053 438.67648611045297 Z" fill-opacity="1"/><path fill="rgb(229,156,4)" stroke="none" paint-order="stroke fill markers" d=" M 1215.7979067675242 520.6119393590998 L 1174.6706849110997 512.1770894767033 L 1164.0031960163615 489.56555957104865 L 1182.7210733958073 472.99557284902403 L 1223.8202998081197 481.4246810995319 Z" fill-opacity="1"/><path fill="rgb(251,188,57)" stroke="none" paint-order="stroke fill markers" d=" M 1214.7951076374502 525.5103466415458 L 1173.6643863505124 517.0747790551686 L 1164.0031960163615 489.56555957104865 L 1174.6706849110997 512.1770894767033 L 1215.7979067675242 520.6119393590998 Z" fill-opacity="1"/><path fill="rgb(153,104,2)" stroke="none" paint-order="stroke fill markers" d=" M 1224.8230989381937 476.5262738170859 L 1183.7273719563964 468.09788327056594 L 1164.0031960163615 489.56555957104865 L 1182.7210733958073 472.99557284902403 L 1223.8202998081197 481.4246810995319 Z" fill-opacity="1"/><path fill="rgb(229,156,4)" stroke="none" paint-order="stroke fill markers" d=" M 1379.2722647599185 553.8366248245802 L 1234.135196027375 524.3628960284768 L 1223.4443557485865 501.762397402832 L 1242.14510681088 485.1730844795529 L 1387.1833802318797 514.6267504051284 Z" fill-opacity="1"/><path fill="rgb(251,188,57)" stroke="none" paint-order="stroke fill markers" d=" M 1378.283375325922 558.7378591270099 L 1233.1339571794379 529.2616224720914 L 1223.4443557485865 501.762397402832 L 1234.135196027375 524.3628960284768 L 1379.2722647599185 553.8366248245802 Z" fill-opacity="1"/><path fill="rgb(153,104,2)" stroke="none" paint-order="stroke fill markers" d=" M 1388.1722696658744 509.72551610269875 L 1243.146345658819 480.2743580359311 L 1223.4443557485865 501.762397402832 L 1242.14510681088 485.1730844795529 L 1387.1833802318797 514.6267504051284 Z" fill-opacity="1"/><path fill="rgb(229,156,4)" stroke="none" paint-order="stroke fill markers" d=" M 1487.495968949881 629.6130883452861 L 1519.5750347022167 636.0074977970435 L 1538.1911015739897 619.3186215865571 L 1527.3836027882026 596.7770725578739 L 1495.3263536912527 590.387011880739 Z" fill-opacity="1"/><path fill="rgb(251,188,57)" stroke="none" paint-order="stroke fill markers" d=" M 1486.5171708572088 634.5163479033508 L 1518.5989636914674 640.9113009519424 L 1538.1911015739897 619.3186215865571 L 1519.5750347022167 636.0074977970435 L 1487.495968949881 629.6130883452861 Z" fill-opacity="1"/><path fill="rgb(153,104,2)" stroke="none" paint-order="stroke fill markers" d=" M 1496.305151783923 585.4837523226743 L 1528.35967379895 591.873269402975 L 1538.1911015739897 619.3186215865571 L 1527.3836027882026 596.7770725578739 L 1495.3263536912527 590.387011880739 Z" fill-opacity="1"/><path fill="rgb(229,156,4)" stroke="none" paint-order="stroke fill markers" d=" M 1472.1371485519303 626.5450045857069 L 1473.0673001146006 626.7309330049247 L 1491.6968173870682 610.057072589967 L 1480.907497650962 587.506816665722 L 1479.9779786751697 587.3210146945858 Z" fill-opacity="1"/><path fill="rgb(251,188,57)" stroke="none" paint-order="stroke fill markers" d=" M 1471.1570447865251 631.4480033220971 L 1472.0872754225566 631.6339475473214 L 1491.6968173870682 610.057072589967 L 1473.0673001146006 626.7309330049247 L 1472.1371485519303 626.5450045857069 Z" fill-opacity="1"/><path fill="rgb(153,104,2)" stroke="none" paint-order="stroke fill markers" d=" M 1480.9580824405748 582.4180159581956 L 1481.887522343006 582.6038021233253 L 1491.6968173870682 610.057072589967 L 1480.907497650962 587.506816665722 L 1479.9779786751697 587.3210146945858 Z" fill-opacity="1"/><path fill="rgb(229,156,4)" stroke="none" paint-order="stroke fill markers" d=" M 1386.071480528517 609.2737750745873 L 1457.2806626531674 623.57322025943 L 1475.914743283798 606.9044598377805 L 1465.131596525549 584.3512514494432 L 1393.97084306147 570.0615311758593 Z" fill-opacity="1"/><path fill="rgb(251,188,57)" stroke="none" paint-order="stroke fill markers" d=" M 1385.0840602118988 614.1753055619265 L 1456.2992959191197 628.4759663606819 L 1475.914743283798 606.9044598377805 L 1457.2806626531674 623.57322025943 L 1386.071480528517 609.2737750745873 Z" fill-opacity="1"/><path fill="rgb(153,104,2)" stroke="none" paint-order="stroke fill markers" d=" M 1394.9582633780883 565.1600006885201 L 1466.1129632595967 579.4485053481985 L 1475.914743283798 606.9044598377805 L 1465.131596525549 584.3512514494432 L 1393.97084306147 570.0615311758593 Z" fill-opacity="1"/><path fill="rgb(0,216,96)" stroke="none" paint-order="stroke fill markers" d=" M 1082.442862117854 547.2745559704563 L 1134.5247194534059 558.0278252870339 L 1153.2518458561372 541.4636690562402 L 1142.595156450996 518.8504332519879 L 1090.548719471577 508.10447712753376 Z" fill-opacity="1"/><path fill="rgb(37,255,134)" stroke="none" paint-order="stroke fill markers" d=" M 1081.4296299486396 552.1708158258261 L 1133.5159148287075 562.924999291412 L 1153.2518458561372 541.4636690562402 L 1134.5247194534059 558.0278252870339 L 1082.442862117854 547.2745559704563 Z" fill-opacity="1"/><path fill="rgb(0,139,62)" stroke="none" paint-order="stroke fill markers" d=" M 1091.5619516407933 503.2082172721639 L 1143.6039610756961 513.9532592476025 L 1153.2518458561372 541.4636690562402 L 1142.595156450996 518.8504332519879 L 1090.548719471577 508.10447712753376 Z" fill-opacity="1"/><path fill="rgb(0,216,96)" stroke="none" paint-order="stroke fill markers" d=" M 1023.739296985339 535.0952340933873 L 1068.3201348078692 544.3501926067111 L 1087.0662876475799 527.8075722383073 L 1076.4355968887758 505.18210259439365 L 1031.8850780531848 495.9334382868328 Z" fill-opacity="1"/><path fill="rgb(37,255,134)" stroke="none" paint-order="stroke fill markers" d=" M 1022.721074351859 539.9904585692129 L 1067.3057020477572 549.2462038582526 L 1087.0662876475799 527.8075722383073 L 1068.3201348078692 544.3501926067111 L 1023.739296985339 535.0952340933873 Z" fill-opacity="1"/><path fill="rgb(0,139,62)" stroke="none" paint-order="stroke fill markers" d=" M 1032.9033006866648 491.03821381100715 L 1077.4500296488895 500.28609134285216 L 1087.0662876475799 527.8075722383073 L 1076.4355968887758 505.18210259439365 L 1031.8850780531848 495.9334382868328 Z" fill-opacity="1"/><path fill="rgb(229,156,4)" stroke="none" paint-order="stroke fill markers" d=" M 348.5593479605559 390.51576284365 L 348.566462173967 390.51732997365616 L 367.51815452854134 374.21058622022974 L 357.17142160992444 351.453860169946 L 357.1643122348196 351.4522941057294 Z" fill-opacity="1"/><path fill="rgb(251,188,57)" stroke="none" paint-order="stroke fill markers" d=" M 347.4837274262718 395.3986964358919 L 347.4908422444714 395.40026369912084 L 367.51815452854134 374.21058622022974 L 348.566462173967 390.51732997365616 L 348.5593479605559 390.51576284365 Z" fill-opacity="1"/><path fill="rgb(153,104,2)" stroke="none" paint-order="stroke fill markers" d=" M 358.23993276910187 346.5693605134875 L 358.2470415394182 346.5709264444813 L 367.51815452854134 374.21058622022974 L 357.17142160992444 351.453860169946 L 357.1643122348196 351.4522941057294 Z" fill-opacity="1"/><path fill="rgb(229,156,4)" stroke="none" paint-order="stroke fill markers" d=" M 312.7061802819735 382.6062345502578 L 312.7132935157297 382.6078061209628 L 331.6751615335761 366.312895988769 L 321.3426363371382 343.54971550620394 L 321.3355279410207 343.548145004308 Z" fill-opacity="1"/><path fill="rgb(251,188,57)" stroke="none" paint-order="stroke fill markers" d=" M 311.62751182459397 387.4884957434988 L 311.634625663055 387.4900674478049 L 331.6751615335761 366.312895988769 L 312.7132935157297 382.6078061209628 L 312.7061802819735 382.6062345502578 Z" fill-opacity="1"/><path fill="rgb(153,104,2)" stroke="none" paint-order="stroke fill markers" d=" M 322.41419639840205 338.66588381106703 L 322.4213041898129 338.66745417935454 L 331.6751615335761 366.312895988769 L 321.3426363371382 343.54971550620394 L 321.3355279410207 343.548145004308 Z" fill-opacity="1"/><path fill="rgb(229,156,4)" stroke="none" paint-order="stroke fill markers" d=" M -61.56584097182713 298.6350393849134 L -19.44102675684553 308.214220079346 L -0.38517337716439215 292.0293201132008 L -10.585789066923098 269.2067238067684 L -52.681954612335176 259.63405781840265 Z" fill-opacity="1"/><path fill="rgb(251,188,57)" stroke="none" paint-order="stroke fill markers" d=" M -62.67632676676476 303.5101620807327 L -20.547931468085153 313.09015711341635 L -0.38517337716439215 292.0293201132008 L -19.44102675684553 308.214220079346 L -61.56584097182713 298.6350393849134 Z" fill-opacity="1"/><path fill="rgb(153,104,2)" stroke="none" paint-order="stroke fill markers" d=" M -51.571468817397545 254.75893512258335 L -9.478884355683476 264.33078677269805 L -0.38517337716439215 292.0293201132008 L -10.585789066923098 269.2067238067684 L -52.681954612335176 259.63405781840265 Z" fill-opacity="1"/><path fill="none" stroke="rgb(122,154,76)" paint-order="fill stroke markers" d=" M 1178.440726410794 419.0278887614113 A 58670.73538286655 58670.73538286655 0 0 1 345.87073406752825 241.43668766725023" stroke-opacity="1" stroke-miterlimit="10" stroke-width="40"/><path fill="none" stroke="rgb(159,187,118)" paint-order="fill stroke markers" d=" M 1173.906727910955 441.0663292144818 A 58693.23538286655 58693.23538286655 0 0 1 341.0174481971553 263.407022581865" stroke-opacity="1" stroke-miterlimit="10" stroke-width="5"/><path fill="none" stroke="rgb(81,102,50)" paint-order="fill stroke markers" d=" M 1182.9747249106313 396.9894483083408 A 58648.23538286655 58648.23538286655 0 0 1 350.7240199379012 219.46635275262815" stroke-opacity="1" stroke-miterlimit="10" stroke-width="5"/><path fill="none" stroke="rgb(84,78,185)" paint-order="fill stroke markers" d=" M 478.68543168894576 162.10941057302261 L 422.9960159515904 149.89133722185943" stroke-opacity="1" stroke-miterlimit="10" stroke-width="40"/><path fill="none" stroke="rgb(136,132,206)" paint-order="fill stroke markers" d=" M 473.8743876622011 184.08903421340074 L 418.163576594603 171.86626679765322" stroke-opacity="1" stroke-miterlimit="10" stroke-width="5"/><path fill="none" stroke="rgb(57,52,133)" paint-order="fill stroke markers" d=" M 483.4964757156886 140.1297869326445 L 427.82845530857594 127.91640764606564" stroke-opacity="1" stroke-miterlimit="10" stroke-width="5"/><path fill="none" stroke="rgb(84,78,185)" paint-order="fill stroke markers" d=" M 537.5052033227767 174.9525886888805 L 480.9529370401124 162.60568991199398" stroke-opacity="1" stroke-miterlimit="10" stroke-width="40"/><path fill="none" stroke="rgb(136,132,206)" paint-order="fill stroke markers" d=" M 532.716757278471 196.93714655299846 L 476.14276416680514 184.58550421805558" stroke-opacity="1" stroke-miterlimit="10" stroke-width="5"/><path fill="none" stroke="rgb(57,52,133)" paint-order="fill stroke markers" d=" M 542.2936493670804 152.96803082476254 L 485.76310991342143 140.62587560593965" stroke-opacity="1" stroke-miterlimit="10" stroke-width="5"/><path fill="none" stroke="rgb(84,78,185)" paint-order="fill stroke markers" d=" M 616.9682257514723 192.2026183329508 L 541.2616127069123 175.7706412799671" stroke-opacity="1" stroke-miterlimit="10" stroke-width="40"/><path fill="none" stroke="rgb(136,132,206)" paint-order="fill stroke markers" d=" M 612.2103086251773 214.19380349016865 L 536.4746098384476 197.75551343191182" stroke-opacity="1" stroke-miterlimit="10" stroke-width="5"/><path fill="none" stroke="rgb(57,52,133)" paint-order="fill stroke markers" d=" M 621.7261428777692 170.2114331757257 L 546.048615575377 153.78576912802237" stroke-opacity="1" stroke-miterlimit="10" stroke-width="5"/><path fill="none" stroke="rgb(84,78,185)" paint-order="fill stroke markers" d=" M 727.7316780078309 216.05478035723354 L 618.1734691256279 192.46336626218545" stroke-opacity="1" stroke-miterlimit="10" stroke-width="40"/><path fill="none" stroke="rgb(136,132,206)" paint-order="fill stroke markers" d=" M 723.0163151193265 238.05512928240933 L 613.4160150420776 214.4546515962138" stroke-opacity="1" stroke-miterlimit="10" stroke-width="5"/><path fill="none" stroke="rgb(57,52,133)" paint-order="fill stroke markers" d=" M 732.4470408963334 194.05443143205048 L 622.9309232091782 170.4720809281498" stroke-opacity="1" stroke-miterlimit="10" stroke-width="5"/><path fill="none" stroke="rgb(84,78,185)" paint-order="fill stroke markers" d=" M 771.8513191351467 225.49322540729918 L 727.8026040675159 216.069981984263" stroke-opacity="1" stroke-miterlimit="10" stroke-width="40"/><path fill="none" stroke="rgb(136,132,206)" paint-order="fill stroke markers" d=" M 767.1529065823506 247.49720049099415 L 723.087268428113 238.07033674976265" stroke-opacity="1" stroke-miterlimit="10" stroke-width="5"/><path fill="none" stroke="rgb(57,52,133)" paint-order="fill stroke markers" d=" M 776.5497316879428 203.4892503236115 L 732.5179397069187 194.06962721876334" stroke-opacity="1" stroke-miterlimit="10" stroke-width="5"/><path fill="none" stroke="rgb(84,78,185)" paint-order="fill stroke markers" d=" M 841.5212088682056 240.32523713377304 L 775.1144750463754 226.18989561979106" stroke-opacity="1" stroke-miterlimit="10" stroke-width="40"/><path fill="none" stroke="rgb(136,132,206)" paint-order="fill stroke markers" d=" M 836.8495628073742 262.3349105316738 L 770.4173161662475 248.19413835737942" stroke-opacity="1" stroke-miterlimit="10" stroke-width="5"/><path fill="none" stroke="rgb(57,52,133)" paint-order="fill stroke markers" d=" M 846.1928549290369 218.31556373587227 L 779.8116339265052 204.18565288219543" stroke-opacity="1" stroke-miterlimit="10" stroke-width="5"/><path fill="none" stroke="rgb(84,78,185)" paint-order="fill stroke markers" d=" M 956.7784541908895 264.6679604748497 L 848.8297872403982 241.87602655008232" stroke-opacity="1" stroke-miterlimit="10" stroke-width="40"/><path fill="none" stroke="rgb(136,132,206)" paint-order="fill stroke markers" d=" M 952.1510888393077 286.6869861095838 L 844.1609490640767 263.88629574614606" stroke-opacity="1" stroke-miterlimit="10" stroke-width="5"/><path fill="none" stroke="rgb(57,52,133)" paint-order="fill stroke markers" d=" M 961.4058195424732 242.64893484011554 L 853.4986254167179 219.86575735401857" stroke-opacity="1" stroke-miterlimit="10" stroke-width="5"/><path fill="none" stroke="rgb(84,78,185)" paint-order="fill stroke markers" d=" M 1049.1471774321672 284.001834721319 L 981.6247766209581 269.88386781787267" stroke-opacity="1" stroke-miterlimit="10" stroke-width="40"/><path fill="none" stroke="rgb(136,132,206)" paint-order="fill stroke markers" d=" M 1044.555299242942 306.02828824192693 L 977.0069569840616 291.90489735332085" stroke-opacity="1" stroke-miterlimit="10" stroke-width="5"/><path fill="none" stroke="rgb(57,52,133)" paint-order="fill stroke markers" d=" M 1053.7390556213923 261.9753812007184 L 986.2425962578527 247.8628382824245" stroke-opacity="1" stroke-miterlimit="10" stroke-width="5"/><path fill="none" stroke="rgb(84,78,185)" paint-order="fill stroke markers" d=" M 1133.8753724651306 301.5999030965613 L 1074.8540731860667 289.3549654072267" stroke-opacity="1" stroke-miterlimit="10" stroke-width="40"/><path fill="none" stroke="rgb(136,132,206)" paint-order="fill stroke markers" d=" M 1129.3160460218623 323.6331176233507 L 1070.2720713354029 311.3834755484131" stroke-opacity="1" stroke-miterlimit="10" stroke-width="5"/><path fill="none" stroke="rgb(57,52,133)" paint-order="fill stroke markers" d=" M 1138.4346989083988 279.56668856976466 L 1079.4360750367287 267.326455266033" stroke-opacity="1" stroke-miterlimit="10" stroke-width="5"/><path fill="none" stroke="rgb(84,78,185)" paint-order="fill stroke markers" d=" M 1199.800897121142 315.2023470713975 L 1133.3071170124676 301.48231123109144" stroke-opacity="1" stroke-miterlimit="10" stroke-width="40"/><path fill="none" stroke="rgb(136,132,206)" paint-order="fill stroke markers" d=" M 1195.2668986213048 337.24078752446803 L 1128.747572250997 323.51548058023764" stroke-opacity="1" stroke-miterlimit="10" stroke-width="5"/><path fill="none" stroke="rgb(57,52,133)" paint-order="fill stroke markers" d=" M 1204.3348956209811 293.163906618327 L 1137.8666617739364 279.44914188194525" stroke-opacity="1" stroke-miterlimit="10" stroke-width="5"/><path fill="none" stroke="rgb(255,47,73)" paint-order="fill stroke markers" d=" M 82.31216158214374 365.044322774731 L -6.418379579656175 345.0064038203782" stroke-opacity="1" stroke-miterlimit="10" stroke-width="40"/><path fill="none" stroke="rgb(255,123,139)" paint-order="fill stroke markers" d=" M 77.37278748977224 386.9954636010225 L -11.391678567153576 366.9498834255137" stroke-opacity="1" stroke-miterlimit="10" stroke-width="5"/><path fill="none" stroke="rgb(225,0,28)" paint-order="fill stroke markers" d=" M 87.25153567451525 343.09318194843945 L -1.4450805921587744 323.0629242152427" stroke-opacity="1" stroke-miterlimit="10" stroke-width="5"/><path fill="none" stroke="rgb(255,47,73)" paint-order="fill stroke markers" d=" M 136.43304750834977 377.19563337655563 L 89.92110761854747 366.7559332688252" stroke-opacity="1" stroke-miterlimit="10" stroke-width="40"/><path fill="none" stroke="rgb(255,123,139)" paint-order="fill stroke markers" d=" M 131.51436578813082 399.15142008837574 L 84.98464270144905 388.70772850571666" stroke-opacity="1" stroke-miterlimit="10" stroke-width="5"/><path fill="none" stroke="rgb(225,0,28)" paint-order="fill stroke markers" d=" M 141.3517292285669 355.23984666472825 L 94.85757253564589 344.80413803194097" stroke-opacity="1" stroke-miterlimit="10" stroke-width="5"/><path fill="none" stroke="rgb(255,47,73)" paint-order="fill stroke markers" d=" M 169.29519549892393 384.5477573971875 L 141.9809070990068 378.4382204371432" stroke-opacity="1" stroke-miterlimit="10" stroke-width="40"/><path fill="none" stroke="rgb(255,123,139)" paint-order="fill stroke markers" d=" M 164.38907816645406 406.506355091944 L 137.06434652616736 400.394482234944" stroke-opacity="1" stroke-miterlimit="10" stroke-width="5"/><path fill="none" stroke="rgb(225,0,28)" paint-order="fill stroke markers" d=" M 174.2013128313938 362.58915970243834 L 146.89746767184624 356.48195863933506" stroke-opacity="1" stroke-miterlimit="10" stroke-width="5"/><path fill="none" stroke="rgb(255,47,73)" paint-order="fill stroke markers" d=" M 191.56133332544232 389.51805587254785 L 173.84785927133817 385.5647505103261" stroke-opacity="1" stroke-miterlimit="10" stroke-width="40"/><path fill="none" stroke="rgb(255,123,139)" paint-order="fill stroke markers" d=" M 186.66372914279418 411.47855389217875 L 168.94348258689024 407.5237370383329" stroke-opacity="1" stroke-miterlimit="10" stroke-width="5"/><path fill="none" stroke="rgb(225,0,28)" paint-order="fill stroke markers" d=" M 196.45893750809228 367.5575578529242 L 178.7522359557861 363.60576398231933" stroke-opacity="1" stroke-miterlimit="10" stroke-width="5"/><path fill="none" stroke="rgb(255,47,73)" paint-order="fill stroke markers" d=" M 275.8058998890192 408.24134607374435 L 196.18553318269005 390.54914403425937" stroke-opacity="1" stroke-miterlimit="10" stroke-width="40"/><path fill="none" stroke="rgb(255,123,139)" paint-order="fill stroke markers" d=" M 270.94050545115715 430.2090026844089 L 191.28969699889603 412.5100362761805" stroke-opacity="1" stroke-miterlimit="10" stroke-width="5"/><path fill="none" stroke="rgb(225,0,28)" paint-order="fill stroke markers" d=" M 280.67129432688307 386.2736894630798 L 201.08136936648407 368.588251792331" stroke-opacity="1" stroke-miterlimit="10" stroke-width="5"/><path fill="none" stroke="rgb(255,47,73)" paint-order="fill stroke markers" d=" M 417.9593648624923 439.54110452270106 L 361.99989251229636 427.263781645197" stroke-opacity="1" stroke-miterlimit="10" stroke-width="40"/><path fill="none" stroke="rgb(255,123,139)" paint-order="fill stroke markers" d=" M 413.1483208357495 461.5207281630792 L 357.1674531553108 449.2387112209908" stroke-opacity="1" stroke-miterlimit="10" stroke-width="5"/><path fill="none" stroke="rgb(225,0,28)" paint-order="fill stroke markers" d=" M 422.77040888923693 417.56148088232294 L 366.83233186928373 405.2888520694105" stroke-opacity="1" stroke-miterlimit="10" stroke-width="5"/><path fill="none" stroke="rgb(255,47,73)" paint-order="fill stroke markers" d=" M 477.0643732524495 452.44656350709556 L 420.2378661059083 440.03979048626934" stroke-opacity="1" stroke-miterlimit="10" stroke-width="40"/><path fill="none" stroke="rgb(255,123,139)" paint-order="fill stroke markers" d=" M 472.27592720814573 474.4311213712135 L 415.42769323259927 462.01960479232366" stroke-opacity="1" stroke-miterlimit="10" stroke-width="5"/><path fill="none" stroke="rgb(225,0,28)" paint-order="fill stroke markers" d=" M 481.8528192967533 430.4620056429703 L 425.04803897921556 418.05997618020774" stroke-opacity="1" stroke-miterlimit="10" stroke-width="5"/><path fill="none" stroke="rgb(255,47,73)" paint-order="fill stroke markers" d=" M 556.9127384684434 469.7802443174587 L 480.8389987227365 453.2685831089475" stroke-opacity="1" stroke-miterlimit="10" stroke-width="40"/><path fill="none" stroke="rgb(255,123,139)" paint-order="fill stroke markers" d=" M 552.1548213421484 491.7714294746838 L 476.0519958542736 475.2534552608922" stroke-opacity="1" stroke-miterlimit="10" stroke-width="5"/><path fill="none" stroke="rgb(225,0,28)" paint-order="fill stroke markers" d=" M 561.6706555947403 447.78905916024087 L 485.6260015912012 431.28371095700277" stroke-opacity="1" stroke-miterlimit="10" stroke-width="5"/><path fill="none" stroke="rgb(255,47,73)" paint-order="fill stroke markers" d=" M 668.2133197707226 493.7480734572964 L 558.1238264710446 470.0422567006608" stroke-opacity="1" stroke-miterlimit="10" stroke-width="40"/><path fill="none" stroke="rgb(255,123,139)" paint-order="fill stroke markers" d=" M 663.4979568822182 515.7484223824795 L 553.3663723874943 492.03354203469644" stroke-opacity="1" stroke-miterlimit="10" stroke-width="5"/><path fill="none" stroke="rgb(225,0,28)" paint-order="fill stroke markers" d=" M 672.9286826592252 471.74772453211335 L 562.8812805545931 448.05097136662516" stroke-opacity="1" stroke-miterlimit="10" stroke-width="5"/><path fill="none" stroke="rgb(255,47,73)" paint-order="fill stroke markers" d=" M 712.546911802081 503.23228868590377 L 668.2845897746065 493.76334880210925" stroke-opacity="1" stroke-miterlimit="10" stroke-width="40"/><path fill="none" stroke="rgb(255,123,139)" paint-order="fill stroke markers" d=" M 707.8484992492849 525.2362637695915 L 663.5692541352037 515.7637035676016" stroke-opacity="1" stroke-miterlimit="10" stroke-width="5"/><path fill="none" stroke="rgb(225,0,28)" paint-order="fill stroke markers" d=" M 717.2453243548771 481.2283136022088 L 672.9999254140093 471.7629940366096" stroke-opacity="1" stroke-miterlimit="10" stroke-width="5"/><path fill="none" stroke="rgb(255,47,73)" paint-order="fill stroke markers" d=" M 782.5546541448166 518.1362258006193 L 715.825891848308 503.93233728538326" stroke-opacity="1" stroke-miterlimit="10" stroke-width="40"/><path fill="none" stroke="rgb(255,123,139)" paint-order="fill stroke markers" d=" M 777.8830080839853 540.1458991985273 L 711.1287329681782 525.9365800229716" stroke-opacity="1" stroke-miterlimit="10" stroke-width="5"/><path fill="none" stroke="rgb(225,0,28)" paint-order="fill stroke markers" d=" M 787.2263002056497 496.1265524027185 L 720.5230507284359 481.9280945477876" stroke-opacity="1" stroke-miterlimit="10" stroke-width="5"/><path fill="none" stroke="rgb(255,47,73)" paint-order="fill stroke markers" d=" M 898.3708204198065 542.5969951532388 L 789.8986742592824 519.6945355137723" stroke-opacity="1" stroke-miterlimit="10" stroke-width="40"/><path fill="none" stroke="rgb(255,123,139)" paint-order="fill stroke markers" d=" M 893.7434550682246 564.616020787973 L 785.2298360829627 541.704804709836" stroke-opacity="1" stroke-miterlimit="10" stroke-width="5"/><path fill="none" stroke="rgb(225,0,28)" paint-order="fill stroke markers" d=" M 902.9981857713883 520.577969518512 L 794.5675124356039 497.68426631770126" stroke-opacity="1" stroke-miterlimit="10" stroke-width="5"/><path fill="none" stroke="rgb(255,47,73)" paint-order="fill stroke markers" d=" M 991.187470510391 562.0246258258339 L 923.3376309819214 547.8381961764244" stroke-opacity="1" stroke-miterlimit="10" stroke-width="40"/><path fill="none" stroke="rgb(255,123,139)" paint-order="fill stroke markers" d=" M 986.5955923211659 584.0510793464346 L 918.7198113450268 569.8592257118726" stroke-opacity="1" stroke-miterlimit="10" stroke-width="5"/><path fill="none" stroke="rgb(225,0,28)" paint-order="fill stroke markers" d=" M 995.7793486996161 539.998172305226 L 927.9554506188178 525.8171666409762" stroke-opacity="1" stroke-miterlimit="10" stroke-width="5"/><path fill="none" stroke="rgb(33,254,91)" paint-order="fill stroke markers" d=" M 1196.907391245626 604.5282950995243 L 1193.9083046451487 603.9141535163944" stroke-opacity="1" stroke-miterlimit="10" stroke-width="40"/><path fill="none" stroke="rgb(109,254,147)" paint-order="fill stroke markers" d=" M 1192.3941672226538 626.5709993101773 L 1189.393933962896 625.9566229185148" stroke-opacity="1" stroke-miterlimit="10" stroke-width="5"/><path fill="none" stroke="rgb(0,209,55)" paint-order="fill stroke markers" d=" M 1201.4206152686002 582.4855908888712 L 1198.4226753274015 581.8716841142814" stroke-opacity="1" stroke-miterlimit="10" stroke-width="5"/><path fill="none" stroke="rgb(255,47,73)" paint-order="fill stroke markers" d=" M 1362.263366495201 638.1378548264038 L 1202.1915739257292 605.6099744799576" stroke-opacity="1" stroke-miterlimit="10" stroke-width="40"/><path fill="none" stroke="rgb(255,123,139)" paint-order="fill stroke markers" d=" M 1357.8133640422238 660.1934091873482 L 1197.6803702369161 627.6530922557649" stroke-opacity="1" stroke-miterlimit="10" stroke-width="5"/><path fill="none" stroke="rgb(225,0,28)" paint-order="fill stroke markers" d=" M 1366.7133689481798 616.0823004654667 L 1206.7027776145442 583.5668567041503" stroke-opacity="1" stroke-miterlimit="10" stroke-width="5"/><path fill="none" stroke="rgb(255,47,73)" paint-order="fill stroke markers" d=" M 1538.204845149452 727.3914008011852 L 1470.6606417559306 713.9491527440478" stroke-opacity="1" stroke-miterlimit="10" stroke-width="40"/><path fill="none" stroke="rgb(255,123,139)" paint-order="fill stroke markers" d=" M 1533.8260550872874 749.4612036456019 L 1466.2560503389086 736.0138207553537" stroke-opacity="1" stroke-miterlimit="10" stroke-width="5"/><path fill="none" stroke="rgb(225,0,28)" paint-order="fill stroke markers" d=" M 1542.5836352116148 705.3215979567613 L 1475.0652331729525 691.8844847327418" stroke-opacity="1" stroke-miterlimit="10" stroke-width="5"/><path fill="none" stroke="rgb(255,47,73)" paint-order="fill stroke markers" d=" M 1470.9468128179997 714.0062780240842 L 1455.2793637869654 710.8765828516043" stroke-opacity="1" stroke-miterlimit="10" stroke-width="40"/><path fill="none" stroke="rgb(255,123,139)" paint-order="fill stroke markers" d=" M 1466.5423307160745 736.0709678567946 L 1450.8688968426432 732.94007716536" stroke-opacity="1" stroke-miterlimit="10" stroke-width="5"/><path fill="none" stroke="rgb(225,0,28)" paint-order="fill stroke markers" d=" M 1475.3512949199248 691.9415881913737 L 1459.6898307312877 688.813088537856" stroke-opacity="1" stroke-miterlimit="10" stroke-width="5"/><path fill="none" stroke="rgb(255,47,73)" paint-order="fill stroke markers" d=" M 1455.136285973318 710.847981578183 L 1369.0878510826715 693.5800994568417" stroke-opacity="1" stroke-miterlimit="10" stroke-width="40"/><path fill="none" stroke="rgb(255,123,139)" paint-order="fill stroke markers" d=" M 1450.7257643743942 732.9114649664698 L 1364.6444596578876 715.6369866498717" stroke-opacity="1" stroke-miterlimit="10" stroke-width="5"/><path fill="none" stroke="rgb(225,0,28)" paint-order="fill stroke markers" d=" M 1459.5468075722401 688.7844981898888 L 1373.5312425074571 671.5232122638117" stroke-opacity="1" stroke-miterlimit="10" stroke-width="5"/><path fill="none" stroke="rgb(255,47,73)" paint-order="fill stroke markers" d=" M 1131.8916751457891 645.289210746254 L 1065.0152688073504 631.4902254827539" stroke-opacity="1" stroke-miterlimit="10" stroke-width="40"/><path fill="none" stroke="rgb(255,123,139)" paint-order="fill stroke markers" d=" M 1127.35767664595 667.3276511993172 L 1060.4557240458817 653.5233948319001" stroke-opacity="1" stroke-miterlimit="10" stroke-width="5"/><path fill="none" stroke="rgb(225,0,28)" paint-order="fill stroke markers" d=" M 1136.4256736456264 623.2507702931835 L 1069.574813568819 609.4570561336077" stroke-opacity="1" stroke-miterlimit="10" stroke-width="5"/><path fill="none" stroke="rgb(255,47,73)" paint-order="fill stroke markers" d=" M 1065.5867941815177 631.6084940089786 L 1006.2258676894726 619.2930950774971" stroke-opacity="1" stroke-miterlimit="10" stroke-width="40"/><path fill="none" stroke="rgb(255,123,139)" paint-order="fill stroke markers" d=" M 1061.0274677382495 653.6417085357753 L 1001.6438658388088 641.3216052186835" stroke-opacity="1" stroke-miterlimit="10" stroke-width="5"/><path fill="none" stroke="rgb(225,0,28)" paint-order="fill stroke markers" d=" M 1070.146120624786 609.5752794821892 L 1010.8078695401346 597.2645849363034" stroke-opacity="1" stroke-miterlimit="10" stroke-width="5"/><path fill="none" stroke="rgb(255,47,73)" paint-order="fill stroke markers" d=" M 342.850486475294 477.31853041080467 L 331.9495181103557 474.9187060839249" stroke-opacity="1" stroke-miterlimit="10" stroke-width="40"/><path fill="none" stroke="rgb(255,123,139)" paint-order="fill stroke markers" d=" M 338.01508044255934 499.2928073840885 L 327.1099479933782 496.89206634317816" stroke-opacity="1" stroke-miterlimit="10" stroke-width="5"/><path fill="none" stroke="rgb(225,0,28)" paint-order="fill stroke markers" d=" M 347.6858925080287 455.3442534375208 L 336.7890882273332 452.94534582467895" stroke-opacity="1" stroke-miterlimit="10" stroke-width="5"/><path fill="none" stroke="rgb(33,254,91)" paint-order="fill stroke markers" d=" M 332.5907389531949 475.0599294040221 L 321.4052234456467 472.5953418321151" stroke-opacity="1" stroke-miterlimit="10" stroke-width="40"/><path fill="none" stroke="rgb(109,254,147)" paint-order="fill stroke markers" d=" M 327.7514137775397 497.0333436094734 L 316.56162549097644 494.5678145844795" stroke-opacity="1" stroke-miterlimit="10" stroke-width="5"/><path fill="none" stroke="rgb(0,209,55)" paint-order="fill stroke markers" d=" M 337.4300641288519 453.08651519857085 L 326.2488214003188 450.62286907975067" stroke-opacity="1" stroke-miterlimit="10" stroke-width="5"/><path fill="none" stroke="rgb(255,47,73)" paint-order="fill stroke markers" d=" M 306.9431339679795 469.40542149321845 L 288.99131184931684 465.4404618392364" stroke-opacity="1" stroke-miterlimit="10" stroke-width="40"/><path fill="none" stroke="rgb(255,123,139)" paint-order="fill stroke markers" d=" M 302.0940116087877 491.3766757210833 L 284.1353320351609 487.4102014836826" stroke-opacity="1" stroke-miterlimit="10" stroke-width="5"/><path fill="none" stroke="rgb(225,0,28)" paint-order="fill stroke markers" d=" M 311.79225632717316 447.4341672653536 L 293.8472916634728 443.4707221947974" stroke-opacity="1" stroke-miterlimit="10" stroke-width="5"/><path fill="none" stroke="rgb(33,254,91)" paint-order="fill stroke markers" d=" M 296.684798358694 467.1404163602565 L 285.57205751719994 464.6845961621875" stroke-opacity="1" stroke-miterlimit="10" stroke-width="40"/><path fill="none" stroke="rgb(109,254,147)" paint-order="fill stroke markers" d=" M 291.83175739592116 489.1108053739663 L 280.71477157476147 486.6540470718828" stroke-opacity="1" stroke-miterlimit="10" stroke-width="5"/><path fill="none" stroke="rgb(0,209,55)" paint-order="fill stroke markers" d=" M 301.5378393214669 445.1700273465467 L 290.4293434596384 442.7151452524995" stroke-opacity="1" stroke-miterlimit="10" stroke-width="5"/><path fill="none" stroke="rgb(255,47,73)" paint-order="fill stroke markers" d=" M -23.82518071583945 395.4051686270759 L -57.12034325476452 387.8454940846568" stroke-opacity="1" stroke-miterlimit="10" stroke-width="40"/><path fill="none" stroke="rgb(255,123,139)" paint-order="fill stroke markers" d=" M -28.800653971691645 417.34815533992514 L -62.1085350010344 409.78559306124225" stroke-opacity="1" stroke-miterlimit="10" stroke-width="5"/><path fill="none" stroke="rgb(225,0,28)" paint-order="fill stroke markers" d=" M -18.849707459989077 373.4621819142267 L -52.132151508494644 365.9053951080714" stroke-opacity="1" stroke-miterlimit="10" stroke-width="5"/><rect fill="rgb(255,255,255)" stroke="none" x="1361.576171875" y="0" width="119.423828125" height="322" transform="matrix(1 0 0 1 0 0)" fill-opacity="1"/><rect fill="rgb(229,156,4)" stroke="none" x="1368.576171875" y="7" width="14" height="14" transform="matrix(1 0 0 1 0 0)" fill-opacity="1"/><text fill="rgb(0,0,0)" stroke="none" font-family="sans-serif" font-size="14px" font-style="normal" font-weight="normal" text-decoration="undefined" x="1386.076171875" y="20" text-anchor="start" dominant-baseline="alphabetic" transform="matrix(1 0 0 1 0 0)" fill-opacity="1">persistent</text><rect fill="rgb(0,216,96)" stroke="none" x="1368.576171875" y="28" width="14" height="14" transform="matrix(1 0 0 1 0 0)" fill-opacity="1"/><text fill="rgb(0,0,0)" stroke="none" font-family="sans-serif" font-size="14px" font-style="normal" font-weight="normal" text-decoration="undefined" x="1386.076171875" y="41" text-anchor="start" dominant-baseline="alphabetic" transform="matrix(1 0 0 1 0 0)" fill-opacity="1">shell</text><rect fill="rgb(121,222,255)" stroke="none" x="1368.576171875" y="49" width="14" height="14" transform="matrix(1 0 0 1 0 0)" fill-opacity="1"/><text fill="rgb(0,0,0)" stroke="none" font-family="sans-serif" font-size="14px" font-style="normal" font-weight="normal" text-decoration="undefined" x="1386.076171875" y="62" text-anchor="start" dominant-baseline="alphabetic" transform="matrix(1 0 0 1 0 0)" fill-opacity="1">cloud</text><rect fill="rgb(165,103,187)" stroke="none" x="1368.576171875" y="70" width="14" height="14" transform="matrix(1 0 0 1 0 0)" fill-opacity="1"/><text fill="rgb(0,0,0)" stroke="none" font-family="sans-serif" font-size="14px" font-style="normal" font-weight="normal" text-decoration="undefined" x="1386.076171875" y="83" text-anchor="start" dominant-baseline="alphabetic" transform="matrix(1 0 0 1 0 0)" fill-opacity="1">RNA</text><rect fill="rgb(122,154,76)" stroke="none" x="1368.576171875" y="91" width="14" height="14" transform="matrix(1 0 0 1 0 0)" fill-opacity="1"/><text fill="rgb(0,0,0)" stroke="none" font-family="sans-serif" font-size="14px" font-style="normal" font-weight="normal" text-decoration="undefined" x="1386.076171875" y="104" text-anchor="start" dominant-baseline="alphabetic" transform="matrix(1 0 0 1 0 0)" fill-opacity="1">RGP</text><rect fill="rgb(255,47,73)" stroke="none" x="1368.576171875" y="112" width="14" height="14" transform="matrix(1 0 0 1 0 0)" fill-opacity="1"/><text fill="rgb(0,0,0)" stroke="none" font-family="sans-serif" font-size="14px" font-style="normal" font-weight="normal" text-decoration="undefined" x="1386.076171875" y="125" text-anchor="start" dominant-baseline="alphabetic" transform="matrix(1 0 0 1 0 0)" fill-opacity="1">cds</text><rect fill="rgb(33,254,91)" stroke="none" x="1368.576171875" y="133" width="14" height="14" transform="matrix(1 0 0 1 0 0)" fill-opacity="1"/><text fill="rgb(0,0,0)" stroke="none" font-family="sans-serif" font-size="14px" font-style="normal" font-weight="normal" text-decoration="undefined" x="1386.076171875" y="146" text-anchor="start" dominant-baseline="alphabetic" transform="matrix(1 0 0 1 0 0)" fill-opacity="1">ncRNA</text><rect fill="rgb(141,24,237)" stroke="none" x="1368.576171875" y="154" width="14" height="14" transform="matrix(1 0 0 1 0 0)" fill-opacity="1"/><text fill="rgb(0,0,0)" stroke="none" font-family="sans-serif" font-size="14px" font-style="normal" font-weight="normal" text-decoration="undefined" x="1386.076171875" y="167" text-anchor="start" dominant-baseline="alphabetic" transform="matrix(1 0 0 1 0 0)" fill-opacity="1">ncRNA-region</text><rect fill="rgb(203,156,4)" stroke="none" x="1368.576171875" y="175" width="14" height="14" transform="matrix(1 0 0 1 0 0)" fill-opacity="1"/><text fill="rgb(0,0,0)" stroke="none" font-family="sans-serif" font-size="14px" font-style="normal" font-weight="normal" text-decoration="undefined" x="1386.076171875" y="188" text-anchor="start" dominant-baseline="alphabetic" transform="matrix(1 0 0 1 0 0)" fill-opacity="1">sorf</text><rect fill="rgb(3,191,202)" stroke="none" x="1368.576171875" y="196" width="14" height="14" transform="matrix(1 0 0 1 0 0)" fill-opacity="1"/><text fill="rgb(0,0,0)" stroke="none" font-family="sans-serif" font-size="14px" font-style="normal" font-weight="normal" text-decoration="undefined" x="1386.076171875" y="209" text-anchor="start" dominant-baseline="alphabetic" transform="matrix(1 0 0 1 0 0)" fill-opacity="1">tRNA</text><rect fill="rgb(236,7,143)" stroke="none" x="1368.576171875" y="217" width="14" height="14" transform="matrix(1 0 0 1 0 0)" fill-opacity="1"/><text fill="rgb(0,0,0)" stroke="none" font-family="sans-serif" font-size="14px" font-style="normal" font-weight="normal" text-decoration="undefined" x="1386.076171875" y="230" text-anchor="start" dominant-baseline="alphabetic" transform="matrix(1 0 0 1 0 0)" fill-opacity="1">rRNA</text><rect fill="rgb(93,243,32)" stroke="none" x="1368.576171875" y="238" width="14" height="14" transform="matrix(1 0 0 1 0 0)" fill-opacity="1"/><text fill="rgb(0,0,0)" stroke="none" font-family="sans-serif" font-size="14px" font-style="normal" font-weight="normal" text-decoration="undefined" x="1386.076171875" y="251" text-anchor="start" dominant-baseline="alphabetic" transform="matrix(1 0 0 1 0 0)" fill-opacity="1">oriC</text><rect fill="rgb(72,79,255)" stroke="none" x="1368.576171875" y="259" width="14" height="14" transform="matrix(1 0 0 1 0 0)" fill-opacity="1"/><text fill="rgb(0,0,0)" stroke="none" font-family="sans-serif" font-size="14px" font-style="normal" font-weight="normal" text-decoration="undefined" x="1386.076171875" y="272" text-anchor="start" dominant-baseline="alphabetic" transform="matrix(1 0 0 1 0 0)" fill-opacity="1">tmRNA</text><rect fill="rgb(246,85,37)" stroke="none" x="1368.576171875" y="280" width="14" height="14" transform="matrix(1 0 0 1 0 0)" fill-opacity="1"/><text fill="rgb(0,0,0)" stroke="none" font-family="sans-serif" font-size="14px" font-style="normal" font-weight="normal" text-decoration="undefined" x="1386.076171875" y="293" text-anchor="start" dominant-baseline="alphabetic" transform="matrix(1 0 0 1 0 0)" fill-opacity="1">crispr</text><rect fill="rgb(10,240,135)" stroke="none" x="1368.576171875" y="301" width="14" height="14" transform="matrix(1 0 0 1 0 0)" fill-opacity="1"/><text fill="rgb(0,0,0)" stroke="none" font-family="sans-serif" font-size="14px" font-style="normal" font-weight="normal" text-decoration="undefined" x="1386.076171875" y="314" text-anchor="start" dominant-baseline="alphabetic" transform="matrix(1 0 0 1 0 0)" fill-opacity="1">oriT</text></g></svg>